<?xml version="1.0" encoding="UTF-8" standalone="no"?>
<!DOCTYPE svg PUBLIC "-//W3C//DTD SVG 1.1//EN" "http://www.w3.org/Graphics/SVG/1.1/DTD/svg11.dtd">
<svg width="100%" height="100%" viewBox="0 0 1290 402" version="1.1" xmlns="http://www.w3.org/2000/svg" xmlns:xlink="http://www.w3.org/1999/xlink" xml:space="preserve" xmlns:serif="http://www.serif.com/" style="fill-rule:evenodd;clip-rule:evenodd;stroke-linejoin:round;stroke-miterlimit:2;">
    <g transform="matrix(1,0,0,1,-50.1915,-431.137)">
        <g transform="matrix(1,0,0,1,-181.89,0)">
            <g transform="matrix(200,0,0,200,224.081,580.671)">
                <path d="M0.067,-0.737C0.078,-0.737 0.078,-0.738 0.09,-0.738L0.114,-0.738C0.126,-0.738 0.126,-0.734 0.138,-0.734C0.149,-0.734 0.149,-0.737 0.161,-0.737L0.185,-0.737C0.197,-0.737 0.197,-0.736 0.209,-0.736C0.22,-0.736 0.22,-0.734 0.232,-0.734C0.244,-0.734 0.244,-0.736 0.256,-0.736C0.268,-0.736 0.268,-0.737 0.28,-0.737C0.292,-0.737 0.292,-0.736 0.303,-0.736C0.315,-0.736 0.315,-0.735 0.327,-0.735C0.339,-0.735 0.339,-0.737 0.351,-0.737C0.363,-0.737 0.363,-0.735 0.374,-0.735L0.398,-0.735C0.41,-0.735 0.41,-0.737 0.422,-0.737C0.434,-0.737 0.434,-0.738 0.445,-0.738C0.457,-0.738 0.457,-0.735 0.469,-0.735C0.481,-0.735 0.481,-0.736 0.493,-0.736C0.505,-0.736 0.505,-0.737 0.516,-0.737C0.523,-0.737 0.529,-0.734 0.534,-0.729C0.538,-0.725 0.542,-0.719 0.542,-0.712L0.542,-0.665C0.542,-0.654 0.54,-0.654 0.54,-0.642C0.54,-0.631 0.542,-0.631 0.542,-0.619C0.542,-0.607 0.539,-0.607 0.539,-0.596C0.539,-0.589 0.539,-0.582 0.535,-0.578C0.53,-0.573 0.523,-0.569 0.516,-0.569C0.505,-0.569 0.505,-0.571 0.493,-0.571C0.482,-0.571 0.482,-0.57 0.47,-0.57C0.459,-0.57 0.459,-0.573 0.447,-0.573L0.424,-0.573C0.413,-0.573 0.413,-0.572 0.401,-0.572L0.378,-0.572C0.367,-0.572 0.367,-0.569 0.355,-0.569L0.332,-0.569C0.321,-0.569 0.321,-0.57 0.309,-0.57C0.298,-0.57 0.298,-0.573 0.286,-0.573C0.275,-0.573 0.275,-0.57 0.263,-0.57C0.256,-0.57 0.25,-0.569 0.245,-0.565C0.241,-0.56 0.239,-0.553 0.239,-0.546C0.239,-0.534 0.24,-0.534 0.24,-0.522C0.24,-0.509 0.241,-0.509 0.241,-0.497C0.241,-0.484 0.238,-0.484 0.238,-0.472L0.238,-0.447C0.238,-0.44 0.243,-0.435 0.247,-0.431C0.252,-0.426 0.256,-0.422 0.263,-0.422C0.275,-0.422 0.275,-0.423 0.287,-0.423C0.3,-0.423 0.3,-0.421 0.312,-0.421C0.324,-0.421 0.324,-0.422 0.336,-0.422C0.348,-0.422 0.348,-0.42 0.36,-0.42C0.372,-0.42 0.372,-0.423 0.384,-0.423C0.396,-0.423 0.396,-0.422 0.408,-0.422C0.42,-0.422 0.42,-0.421 0.432,-0.421C0.445,-0.421 0.445,-0.423 0.457,-0.423L0.481,-0.423C0.488,-0.423 0.494,-0.42 0.499,-0.415C0.503,-0.411 0.507,-0.404 0.507,-0.397C0.507,-0.386 0.505,-0.386 0.505,-0.374L0.505,-0.351C0.505,-0.339 0.503,-0.339 0.503,-0.328L0.503,-0.305C0.503,-0.293 0.506,-0.293 0.506,-0.281C0.506,-0.275 0.503,-0.268 0.499,-0.264C0.494,-0.259 0.488,-0.256 0.481,-0.256C0.469,-0.256 0.469,-0.257 0.457,-0.257L0.432,-0.257C0.42,-0.257 0.42,-0.256 0.408,-0.256L0.384,-0.256C0.372,-0.256 0.372,-0.258 0.36,-0.258C0.348,-0.258 0.348,-0.257 0.336,-0.257L0.312,-0.257C0.3,-0.257 0.3,-0.258 0.287,-0.258C0.275,-0.258 0.275,-0.256 0.263,-0.256C0.256,-0.256 0.251,-0.254 0.246,-0.249C0.242,-0.245 0.24,-0.239 0.24,-0.232C0.24,-0.221 0.238,-0.221 0.238,-0.209C0.238,-0.198 0.237,-0.198 0.237,-0.186C0.237,-0.175 0.238,-0.175 0.238,-0.163C0.238,-0.152 0.239,-0.152 0.239,-0.141C0.239,-0.129 0.238,-0.129 0.238,-0.118C0.238,-0.106 0.239,-0.106 0.239,-0.095C0.239,-0.084 0.24,-0.084 0.24,-0.072C0.24,-0.061 0.239,-0.061 0.239,-0.049C0.239,-0.038 0.24,-0.038 0.24,-0.026C0.24,-0.02 0.236,-0.013 0.232,-0.009C0.227,-0.004 0.221,-0 0.214,-0L0.165,-0C0.153,-0 0.153,-0.003 0.14,-0.003C0.128,-0.003 0.128,-0.002 0.116,-0.002C0.103,-0.002 0.103,-0.003 0.091,-0.003C0.079,-0.003 0.079,-0.002 0.067,-0.002C0.06,-0.002 0.053,-0.004 0.049,-0.008C0.044,-0.013 0.041,-0.02 0.041,-0.026C0.041,-0.038 0.043,-0.038 0.043,-0.05C0.043,-0.062 0.042,-0.062 0.042,-0.074C0.042,-0.085 0.04,-0.085 0.04,-0.097C0.04,-0.109 0.042,-0.109 0.042,-0.121C0.042,-0.133 0.041,-0.133 0.041,-0.145L0.041,-0.168C0.041,-0.18 0.04,-0.18 0.04,-0.192C0.04,-0.204 0.044,-0.204 0.044,-0.215C0.044,-0.227 0.041,-0.227 0.041,-0.239C0.041,-0.251 0.044,-0.251 0.044,-0.263L0.044,-0.286C0.044,-0.298 0.04,-0.298 0.04,-0.31C0.04,-0.322 0.041,-0.322 0.041,-0.334C0.041,-0.345 0.04,-0.345 0.04,-0.357C0.04,-0.369 0.043,-0.369 0.043,-0.381C0.043,-0.393 0.041,-0.393 0.041,-0.405L0.041,-0.452C0.041,-0.464 0.043,-0.464 0.043,-0.475C0.043,-0.487 0.044,-0.487 0.044,-0.499C0.044,-0.511 0.043,-0.511 0.043,-0.523C0.043,-0.535 0.04,-0.535 0.04,-0.546C0.04,-0.558 0.044,-0.558 0.044,-0.57L0.044,-0.594C0.044,-0.605 0.043,-0.605 0.043,-0.617C0.043,-0.629 0.044,-0.629 0.044,-0.641C0.044,-0.653 0.043,-0.653 0.043,-0.665C0.043,-0.676 0.041,-0.676 0.041,-0.688C0.041,-0.7 0.04,-0.7 0.04,-0.712C0.04,-0.719 0.046,-0.724 0.05,-0.728C0.054,-0.733 0.06,-0.737 0.067,-0.737Z" style="fill-rule:nonzero;"/>
            </g>
            <g transform="matrix(200,0,0,200,318.481,580.671)">
                <path d="M0.496,-0.091C0.484,-0.091 0.484,-0.092 0.471,-0.092C0.459,-0.092 0.459,-0.089 0.446,-0.089C0.434,-0.089 0.434,-0.091 0.421,-0.091L0.372,-0.091C0.359,-0.091 0.359,-0.093 0.347,-0.093C0.335,-0.093 0.335,-0.089 0.322,-0.089C0.31,-0.089 0.31,-0.09 0.297,-0.09L0.272,-0.09C0.262,-0.09 0.254,-0.084 0.25,-0.075C0.246,-0.065 0.245,-0.066 0.241,-0.056C0.237,-0.046 0.237,-0.046 0.233,-0.037C0.229,-0.027 0.229,-0.027 0.225,-0.017C0.221,-0.008 0.213,-0 0.203,-0C0.19,-0 0.19,-0.002 0.177,-0.002C0.164,-0.002 0.164,-0.004 0.151,-0.004C0.138,-0.004 0.138,-0 0.125,-0C0.112,-0 0.112,-0.002 0.099,-0.002L0.073,-0.002C0.06,-0.002 0.06,-0.001 0.047,-0.001C0.038,-0.001 0.032,-0.008 0.036,-0.017C0.041,-0.028 0.043,-0.027 0.048,-0.038C0.053,-0.049 0.052,-0.049 0.056,-0.06C0.061,-0.071 0.061,-0.071 0.066,-0.082C0.071,-0.093 0.073,-0.092 0.078,-0.103C0.083,-0.113 0.08,-0.115 0.085,-0.125C0.09,-0.136 0.092,-0.135 0.096,-0.146C0.101,-0.157 0.102,-0.157 0.107,-0.167C0.112,-0.178 0.109,-0.18 0.114,-0.191C0.119,-0.202 0.121,-0.2 0.126,-0.211C0.131,-0.222 0.13,-0.223 0.135,-0.233C0.14,-0.244 0.139,-0.244 0.144,-0.255C0.149,-0.266 0.159,-0.288 0.164,-0.299C0.168,-0.31 0.167,-0.31 0.172,-0.321C0.177,-0.332 0.18,-0.33 0.185,-0.341C0.19,-0.352 0.189,-0.352 0.194,-0.363C0.199,-0.374 0.198,-0.374 0.203,-0.385C0.208,-0.396 0.21,-0.395 0.215,-0.406C0.22,-0.417 0.217,-0.418 0.222,-0.429C0.227,-0.44 0.229,-0.439 0.234,-0.45C0.239,-0.461 0.238,-0.461 0.243,-0.472C0.248,-0.482 0.248,-0.482 0.253,-0.493C0.258,-0.504 0.259,-0.503 0.264,-0.514C0.269,-0.525 0.269,-0.525 0.274,-0.536C0.279,-0.547 0.278,-0.547 0.282,-0.558C0.287,-0.569 0.289,-0.568 0.294,-0.579C0.311,-0.616 0.33,-0.646 0.346,-0.683C0.356,-0.703 0.375,-0.763 0.41,-0.744C0.42,-0.739 0.424,-0.727 0.427,-0.716C0.436,-0.692 0.446,-0.675 0.457,-0.651C0.461,-0.644 0.464,-0.636 0.468,-0.629C0.474,-0.621 0.48,-0.613 0.484,-0.604C0.488,-0.595 0.49,-0.585 0.493,-0.576C0.499,-0.563 0.507,-0.552 0.514,-0.541C0.519,-0.533 0.52,-0.524 0.524,-0.515C0.529,-0.504 0.527,-0.504 0.532,-0.493C0.536,-0.482 0.54,-0.483 0.545,-0.472C0.549,-0.462 0.549,-0.461 0.554,-0.45C0.559,-0.44 0.557,-0.439 0.561,-0.428C0.566,-0.417 0.566,-0.417 0.57,-0.406C0.575,-0.395 0.578,-0.396 0.583,-0.385C0.588,-0.375 0.585,-0.373 0.59,-0.362C0.594,-0.351 0.596,-0.352 0.601,-0.341C0.606,-0.331 0.604,-0.33 0.609,-0.319C0.614,-0.308 0.617,-0.309 0.622,-0.299C0.627,-0.288 0.623,-0.286 0.628,-0.275C0.633,-0.264 0.634,-0.265 0.638,-0.254C0.643,-0.243 0.646,-0.244 0.651,-0.233C0.656,-0.223 0.656,-0.222 0.66,-0.212C0.665,-0.201 0.664,-0.2 0.669,-0.189C0.674,-0.178 0.674,-0.179 0.679,-0.168C0.684,-0.157 0.684,-0.157 0.689,-0.146C0.693,-0.135 0.691,-0.134 0.696,-0.123C0.7,-0.112 0.7,-0.112 0.705,-0.101C0.71,-0.091 0.713,-0.092 0.718,-0.081C0.726,-0.063 0.741,-0.033 0.738,-0.013C0.738,-0.011 0.737,-0.009 0.736,-0.008C0.734,-0.004 0.729,-0.004 0.725,-0.004C0.712,-0.003 0.699,-0.004 0.686,-0.004C0.674,-0.004 0.674,-0 0.663,-0C0.651,-0 0.651,-0.002 0.639,-0.002L0.615,-0.002C0.603,-0.002 0.603,-0 0.591,-0C0.579,-0 0.579,-0.001 0.567,-0.001C0.557,-0.001 0.548,-0.007 0.544,-0.016C0.54,-0.026 0.539,-0.026 0.534,-0.036C0.53,-0.046 0.533,-0.047 0.528,-0.057C0.524,-0.066 0.522,-0.066 0.518,-0.076C0.514,-0.085 0.506,-0.091 0.496,-0.091ZM0.322,-0.233C0.333,-0.233 0.338,-0.232 0.349,-0.232C0.36,-0.232 0.36,-0.234 0.372,-0.234C0.383,-0.234 0.383,-0.232 0.394,-0.232C0.405,-0.232 0.405,-0.233 0.417,-0.233C0.425,-0.233 0.453,-0.228 0.452,-0.242C0.452,-0.245 0.45,-0.248 0.449,-0.25C0.445,-0.258 0.442,-0.266 0.439,-0.273C0.433,-0.287 0.428,-0.301 0.423,-0.315C0.419,-0.325 0.416,-0.335 0.414,-0.346C0.413,-0.35 0.413,-0.355 0.411,-0.359C0.41,-0.365 0.407,-0.371 0.404,-0.376C0.4,-0.386 0.399,-0.395 0.398,-0.405C0.397,-0.412 0.396,-0.422 0.388,-0.425C0.383,-0.426 0.377,-0.422 0.374,-0.417C0.364,-0.405 0.364,-0.389 0.359,-0.374C0.356,-0.365 0.351,-0.357 0.348,-0.348C0.344,-0.338 0.341,-0.327 0.34,-0.316C0.339,-0.309 0.339,-0.302 0.336,-0.296C0.334,-0.292 0.331,-0.289 0.329,-0.285C0.323,-0.275 0.324,-0.264 0.321,-0.254C0.319,-0.249 0.308,-0.233 0.322,-0.233Z" style="fill-rule:nonzero;"/>
            </g>
            <g transform="matrix(200,0,0,200,473.081,580.671)">
                <path d="M0.216,-0.001C0.204,-0.001 0.204,-0.002 0.191,-0.002C0.178,-0.002 0.178,0.001 0.166,0.001C0.153,0.001 0.153,0.002 0.14,0.002C0.128,0.002 0.128,-0 0.115,-0L0.09,-0C0.077,-0 0.077,0.002 0.064,0.002C0.052,0.002 0.042,-0.01 0.042,-0.022C0.042,-0.034 0.044,-0.034 0.044,-0.046C0.044,-0.058 0.041,-0.058 0.041,-0.07C0.041,-0.082 0.043,-0.082 0.043,-0.094C0.043,-0.105 0.04,-0.105 0.04,-0.117C0.04,-0.129 0.043,-0.129 0.043,-0.141L0.043,-0.165C0.043,-0.177 0.044,-0.177 0.044,-0.189C0.044,-0.201 0.043,-0.201 0.043,-0.213C0.043,-0.224 0.041,-0.224 0.041,-0.236L0.041,-0.26C0.041,-0.272 0.04,-0.272 0.04,-0.284L0.04,-0.308C0.04,-0.32 0.043,-0.32 0.043,-0.332L0.043,-0.355C0.043,-0.367 0.041,-0.367 0.041,-0.379C0.041,-0.391 0.04,-0.391 0.04,-0.403C0.04,-0.415 0.044,-0.415 0.044,-0.427C0.044,-0.439 0.041,-0.439 0.041,-0.451C0.041,-0.462 0.042,-0.462 0.042,-0.474C0.042,-0.486 0.044,-0.486 0.044,-0.498C0.044,-0.51 0.043,-0.51 0.043,-0.522C0.043,-0.534 0.044,-0.534 0.044,-0.546C0.044,-0.558 0.04,-0.558 0.04,-0.569C0.04,-0.581 0.042,-0.581 0.042,-0.593C0.042,-0.605 0.04,-0.605 0.04,-0.617C0.04,-0.629 0.044,-0.629 0.044,-0.641L0.044,-0.665C0.044,-0.677 0.04,-0.677 0.04,-0.689C0.04,-0.7 0.042,-0.7 0.042,-0.712C0.042,-0.725 0.052,-0.733 0.064,-0.733C0.077,-0.733 0.077,-0.737 0.089,-0.737C0.102,-0.737 0.102,-0.736 0.114,-0.736L0.139,-0.736C0.152,-0.736 0.152,-0.737 0.164,-0.737C0.177,-0.737 0.177,-0.734 0.189,-0.734C0.202,-0.734 0.202,-0.733 0.214,-0.733C0.227,-0.733 0.227,-0.736 0.239,-0.736L0.264,-0.736C0.277,-0.736 0.277,-0.734 0.289,-0.734C0.302,-0.734 0.302,-0.733 0.314,-0.733C0.327,-0.733 0.327,-0.737 0.339,-0.737C0.347,-0.737 0.355,-0.733 0.363,-0.732C0.372,-0.732 0.38,-0.731 0.388,-0.731C0.396,-0.73 0.404,-0.732 0.412,-0.73C0.421,-0.729 0.428,-0.723 0.435,-0.721C0.444,-0.719 0.452,-0.718 0.459,-0.716C0.467,-0.713 0.475,-0.71 0.482,-0.707C0.49,-0.704 0.497,-0.7 0.504,-0.696C0.511,-0.692 0.518,-0.688 0.525,-0.683C0.531,-0.679 0.537,-0.674 0.544,-0.668C0.55,-0.663 0.557,-0.658 0.562,-0.653C0.568,-0.647 0.573,-0.64 0.578,-0.634C0.583,-0.627 0.587,-0.621 0.591,-0.614C0.596,-0.607 0.601,-0.6 0.605,-0.593C0.608,-0.586 0.612,-0.578 0.615,-0.571C0.618,-0.563 0.619,-0.555 0.621,-0.547C0.623,-0.539 0.626,-0.531 0.628,-0.523C0.629,-0.515 0.629,-0.507 0.629,-0.499C0.63,-0.491 0.629,-0.482 0.629,-0.474C0.629,-0.466 0.631,-0.458 0.631,-0.45C0.63,-0.441 0.625,-0.434 0.623,-0.426C0.622,-0.418 0.623,-0.409 0.621,-0.401C0.619,-0.393 0.616,-0.385 0.613,-0.378C0.61,-0.37 0.606,-0.363 0.602,-0.356C0.598,-0.349 0.595,-0.341 0.59,-0.334C0.585,-0.328 0.578,-0.323 0.572,-0.317C0.567,-0.311 0.563,-0.304 0.557,-0.298C0.551,-0.293 0.543,-0.289 0.536,-0.284C0.53,-0.28 0.523,-0.276 0.515,-0.272C0.505,-0.265 0.501,-0.25 0.507,-0.24C0.513,-0.229 0.513,-0.23 0.519,-0.219C0.525,-0.209 0.527,-0.21 0.532,-0.2C0.538,-0.19 0.536,-0.189 0.542,-0.179C0.548,-0.168 0.551,-0.17 0.557,-0.16C0.563,-0.15 0.562,-0.15 0.568,-0.139C0.574,-0.129 0.572,-0.128 0.578,-0.118C0.583,-0.108 0.585,-0.109 0.591,-0.099C0.597,-0.088 0.596,-0.088 0.602,-0.078C0.608,-0.068 0.608,-0.068 0.614,-0.058C0.619,-0.047 0.621,-0.049 0.627,-0.038C0.633,-0.028 0.633,-0.028 0.639,-0.018C0.644,-0.01 0.637,-0.001 0.628,-0.001C0.615,-0.001 0.615,0.001 0.602,0.001L0.551,0.001C0.538,0.001 0.538,-0 0.525,-0C0.512,-0 0.512,-0.002 0.5,-0.002C0.487,-0.002 0.487,0.001 0.474,0.001C0.461,0.001 0.461,-0.001 0.448,-0.001C0.44,-0.001 0.432,-0.004 0.428,-0.011C0.422,-0.021 0.421,-0.021 0.415,-0.031C0.41,-0.041 0.413,-0.043 0.407,-0.054C0.401,-0.064 0.401,-0.064 0.395,-0.074C0.389,-0.085 0.387,-0.083 0.381,-0.094C0.375,-0.104 0.376,-0.104 0.37,-0.115C0.364,-0.125 0.364,-0.125 0.358,-0.136C0.353,-0.146 0.352,-0.146 0.346,-0.156C0.34,-0.166 0.341,-0.166 0.335,-0.177C0.329,-0.187 0.331,-0.188 0.325,-0.199C0.319,-0.209 0.318,-0.209 0.312,-0.219C0.308,-0.226 0.301,-0.229 0.292,-0.229C0.277,-0.229 0.277,-0.228 0.261,-0.228C0.249,-0.228 0.24,-0.22 0.24,-0.208C0.24,-0.196 0.239,-0.196 0.239,-0.185L0.239,-0.161C0.239,-0.15 0.24,-0.15 0.24,-0.138C0.24,-0.127 0.238,-0.127 0.238,-0.115C0.238,-0.103 0.237,-0.103 0.237,-0.092C0.237,-0.08 0.24,-0.08 0.24,-0.069C0.24,-0.057 0.241,-0.057 0.241,-0.045C0.241,-0.034 0.237,-0.034 0.237,-0.022C0.237,-0.01 0.229,-0.001 0.216,-0.001ZM0.329,-0.379C0.337,-0.379 0.345,-0.379 0.352,-0.38C0.36,-0.381 0.367,-0.386 0.374,-0.388C0.381,-0.39 0.388,-0.393 0.394,-0.397C0.4,-0.401 0.407,-0.405 0.412,-0.41C0.417,-0.416 0.42,-0.423 0.424,-0.43C0.426,-0.437 0.427,-0.444 0.428,-0.452C0.43,-0.459 0.432,-0.466 0.432,-0.474C0.432,-0.482 0.433,-0.49 0.432,-0.497C0.431,-0.505 0.425,-0.511 0.422,-0.518C0.419,-0.525 0.417,-0.533 0.412,-0.538C0.408,-0.544 0.4,-0.547 0.394,-0.551C0.387,-0.555 0.382,-0.56 0.374,-0.563C0.367,-0.565 0.36,-0.567 0.352,-0.568C0.345,-0.569 0.337,-0.57 0.329,-0.57L0.306,-0.57C0.295,-0.57 0.295,-0.568 0.284,-0.568L0.261,-0.568C0.249,-0.568 0.24,-0.558 0.24,-0.546L0.24,-0.522C0.24,-0.51 0.237,-0.51 0.237,-0.498C0.237,-0.486 0.238,-0.486 0.238,-0.474C0.238,-0.462 0.239,-0.462 0.239,-0.45C0.239,-0.438 0.24,-0.438 0.24,-0.426C0.24,-0.414 0.237,-0.414 0.237,-0.403C0.237,-0.39 0.249,-0.381 0.261,-0.381C0.272,-0.381 0.272,-0.38 0.284,-0.38C0.295,-0.38 0.295,-0.378 0.306,-0.378C0.318,-0.378 0.318,-0.379 0.329,-0.379Z" style="fill-rule:nonzero;"/>
            </g>
            <g transform="matrix(200,0,0,200,603.281,580.671)">
                <path d="M0.557,-0.258C0.545,-0.258 0.545,-0.261 0.533,-0.261C0.521,-0.261 0.521,-0.262 0.509,-0.262C0.497,-0.262 0.497,-0.261 0.485,-0.261C0.473,-0.261 0.473,-0.26 0.461,-0.26C0.454,-0.26 0.448,-0.263 0.443,-0.267C0.439,-0.271 0.436,-0.278 0.436,-0.284C0.436,-0.297 0.438,-0.297 0.438,-0.31C0.438,-0.323 0.437,-0.323 0.437,-0.335C0.437,-0.348 0.435,-0.348 0.435,-0.361C0.435,-0.374 0.438,-0.374 0.438,-0.386C0.438,-0.393 0.437,-0.401 0.442,-0.405C0.446,-0.41 0.454,-0.411 0.461,-0.411C0.473,-0.411 0.473,-0.413 0.485,-0.413C0.498,-0.413 0.498,-0.411 0.51,-0.411L0.559,-0.411C0.572,-0.411 0.572,-0.41 0.584,-0.41C0.596,-0.41 0.596,-0.409 0.609,-0.409C0.621,-0.409 0.621,-0.411 0.633,-0.411C0.646,-0.411 0.646,-0.409 0.658,-0.409L0.683,-0.409C0.695,-0.409 0.695,-0.41 0.707,-0.41C0.72,-0.41 0.72,-0.411 0.732,-0.411C0.739,-0.411 0.745,-0.408 0.749,-0.403C0.754,-0.399 0.756,-0.393 0.756,-0.386L0.756,-0.363C0.756,-0.351 0.755,-0.351 0.755,-0.339C0.755,-0.328 0.756,-0.328 0.756,-0.316L0.756,-0.293C0.756,-0.281 0.759,-0.281 0.759,-0.269C0.759,-0.257 0.757,-0.257 0.757,-0.246C0.757,-0.234 0.759,-0.234 0.759,-0.222C0.759,-0.211 0.758,-0.211 0.758,-0.199C0.758,-0.187 0.755,-0.187 0.755,-0.175C0.755,-0.164 0.756,-0.164 0.756,-0.152C0.756,-0.14 0.759,-0.14 0.759,-0.129C0.759,-0.117 0.757,-0.117 0.757,-0.105C0.757,-0.098 0.755,-0.089 0.749,-0.084C0.743,-0.079 0.736,-0.074 0.73,-0.07C0.723,-0.065 0.716,-0.062 0.709,-0.058C0.703,-0.054 0.695,-0.051 0.688,-0.047C0.681,-0.043 0.674,-0.041 0.667,-0.038C0.66,-0.034 0.653,-0.03 0.645,-0.027C0.638,-0.024 0.631,-0.021 0.623,-0.018C0.616,-0.016 0.609,-0.012 0.601,-0.01C0.594,-0.008 0.586,-0.006 0.578,-0.005C0.571,-0.003 0.562,-0.004 0.554,-0.002C0.547,-0.001 0.539,-0 0.531,0.001C0.523,0.002 0.516,0.004 0.508,0.005C0.5,0.005 0.492,0.008 0.484,0.009C0.477,0.009 0.469,0.01 0.461,0.01C0.453,0.01 0.445,0.007 0.437,0.007C0.429,0.007 0.421,0.006 0.413,0.006C0.405,0.006 0.396,0.008 0.388,0.007C0.38,0.006 0.372,0.003 0.364,0.001C0.356,-0 0.348,-0 0.34,-0.002C0.332,-0.004 0.325,-0.008 0.317,-0.011C0.309,-0.013 0.301,-0.013 0.293,-0.016C0.286,-0.018 0.278,-0.02 0.27,-0.024C0.263,-0.027 0.255,-0.029 0.248,-0.033C0.24,-0.037 0.234,-0.043 0.227,-0.047C0.22,-0.051 0.212,-0.053 0.205,-0.058C0.198,-0.062 0.194,-0.069 0.187,-0.074C0.181,-0.079 0.173,-0.083 0.167,-0.088C0.161,-0.094 0.154,-0.099 0.149,-0.104C0.143,-0.11 0.137,-0.115 0.131,-0.122C0.126,-0.128 0.124,-0.137 0.119,-0.143C0.114,-0.15 0.109,-0.155 0.104,-0.162C0.099,-0.169 0.093,-0.174 0.089,-0.181C0.085,-0.188 0.081,-0.196 0.077,-0.203C0.074,-0.21 0.073,-0.219 0.07,-0.226C0.067,-0.234 0.063,-0.241 0.061,-0.249C0.058,-0.257 0.056,-0.264 0.054,-0.272C0.052,-0.28 0.049,-0.288 0.047,-0.296C0.046,-0.304 0.045,-0.312 0.044,-0.32C0.043,-0.328 0.041,-0.336 0.041,-0.344C0.04,-0.352 0.041,-0.361 0.041,-0.369C0.041,-0.377 0.04,-0.385 0.04,-0.393C0.041,-0.401 0.044,-0.409 0.045,-0.417C0.046,-0.425 0.048,-0.433 0.049,-0.441C0.051,-0.449 0.051,-0.457 0.053,-0.465C0.055,-0.473 0.057,-0.481 0.059,-0.488C0.062,-0.496 0.067,-0.503 0.07,-0.51C0.073,-0.517 0.074,-0.526 0.077,-0.533C0.081,-0.54 0.084,-0.548 0.088,-0.555C0.092,-0.562 0.098,-0.568 0.102,-0.575C0.106,-0.582 0.112,-0.587 0.117,-0.594C0.122,-0.6 0.125,-0.608 0.13,-0.614C0.135,-0.62 0.144,-0.624 0.149,-0.629C0.155,-0.635 0.16,-0.641 0.166,-0.647C0.172,-0.652 0.178,-0.658 0.184,-0.663C0.19,-0.668 0.198,-0.671 0.205,-0.676C0.212,-0.68 0.217,-0.687 0.224,-0.691C0.23,-0.695 0.239,-0.696 0.247,-0.7C0.254,-0.703 0.26,-0.708 0.268,-0.711C0.275,-0.714 0.283,-0.716 0.291,-0.719C0.298,-0.722 0.306,-0.724 0.314,-0.726C0.322,-0.728 0.329,-0.732 0.337,-0.734C0.344,-0.736 0.352,-0.738 0.36,-0.739C0.368,-0.741 0.377,-0.739 0.385,-0.74C0.393,-0.741 0.4,-0.742 0.409,-0.742C0.417,-0.743 0.425,-0.745 0.433,-0.745C0.441,-0.745 0.449,-0.746 0.456,-0.746C0.465,-0.746 0.472,-0.744 0.48,-0.744C0.488,-0.743 0.496,-0.74 0.504,-0.739C0.512,-0.738 0.519,-0.735 0.527,-0.734C0.535,-0.732 0.543,-0.732 0.55,-0.73C0.558,-0.728 0.566,-0.726 0.573,-0.724C0.581,-0.721 0.588,-0.717 0.595,-0.714C0.603,-0.711 0.61,-0.708 0.617,-0.704C0.624,-0.7 0.632,-0.699 0.638,-0.695C0.645,-0.691 0.652,-0.686 0.659,-0.682C0.665,-0.677 0.669,-0.67 0.676,-0.665C0.682,-0.66 0.689,-0.656 0.695,-0.651C0.701,-0.646 0.707,-0.64 0.712,-0.635C0.717,-0.629 0.719,-0.622 0.719,-0.615C0.719,-0.609 0.713,-0.604 0.708,-0.6C0.7,-0.593 0.701,-0.59 0.693,-0.583C0.685,-0.576 0.684,-0.576 0.676,-0.569C0.668,-0.562 0.667,-0.562 0.659,-0.555C0.651,-0.548 0.649,-0.549 0.641,-0.542C0.633,-0.535 0.634,-0.533 0.626,-0.526C0.617,-0.519 0.618,-0.519 0.609,-0.511C0.604,-0.507 0.598,-0.505 0.592,-0.506C0.586,-0.506 0.581,-0.51 0.576,-0.514C0.571,-0.52 0.563,-0.523 0.558,-0.528C0.552,-0.533 0.547,-0.54 0.54,-0.545C0.534,-0.549 0.527,-0.553 0.52,-0.556C0.513,-0.559 0.505,-0.56 0.497,-0.562C0.49,-0.565 0.482,-0.566 0.474,-0.568C0.467,-0.569 0.46,-0.574 0.452,-0.575L0.428,-0.575C0.42,-0.575 0.412,-0.573 0.404,-0.572C0.396,-0.571 0.388,-0.571 0.381,-0.569C0.373,-0.567 0.365,-0.564 0.358,-0.562C0.35,-0.559 0.343,-0.555 0.336,-0.551C0.329,-0.548 0.323,-0.543 0.316,-0.538C0.31,-0.533 0.302,-0.53 0.297,-0.524C0.291,-0.518 0.288,-0.51 0.283,-0.504C0.279,-0.498 0.271,-0.493 0.268,-0.486C0.264,-0.479 0.263,-0.47 0.26,-0.462C0.258,-0.455 0.256,-0.447 0.254,-0.439C0.251,-0.432 0.248,-0.424 0.247,-0.416C0.246,-0.409 0.245,-0.401 0.245,-0.393C0.244,-0.385 0.241,-0.377 0.241,-0.369C0.241,-0.361 0.241,-0.353 0.242,-0.345C0.242,-0.338 0.244,-0.33 0.245,-0.322C0.247,-0.315 0.248,-0.307 0.25,-0.299C0.252,-0.292 0.258,-0.286 0.26,-0.278C0.263,-0.271 0.266,-0.264 0.269,-0.257C0.273,-0.25 0.276,-0.244 0.281,-0.237C0.285,-0.231 0.287,-0.223 0.293,-0.217C0.298,-0.211 0.305,-0.207 0.311,-0.202C0.316,-0.197 0.322,-0.191 0.328,-0.187C0.334,-0.182 0.342,-0.18 0.349,-0.177C0.356,-0.174 0.363,-0.171 0.371,-0.169C0.378,-0.166 0.386,-0.165 0.393,-0.164C0.401,-0.162 0.408,-0.158 0.416,-0.158C0.423,-0.157 0.431,-0.156 0.439,-0.156C0.448,-0.156 0.457,-0.159 0.465,-0.16C0.474,-0.16 0.483,-0.159 0.491,-0.16C0.5,-0.161 0.509,-0.163 0.517,-0.165C0.526,-0.167 0.535,-0.167 0.542,-0.17C0.551,-0.172 0.559,-0.176 0.567,-0.179C0.576,-0.183 0.584,-0.192 0.584,-0.202C0.584,-0.219 0.58,-0.219 0.58,-0.235C0.58,-0.242 0.579,-0.248 0.574,-0.252C0.57,-0.257 0.564,-0.258 0.557,-0.258Z" style="fill-rule:nonzero;"/>
            </g>
            <g transform="matrix(200,0,0,200,763.081,580.671)">
                <path d="M0.041,-0.366C0.041,-0.374 0.04,-0.382 0.04,-0.39C0.041,-0.399 0.044,-0.406 0.045,-0.414C0.046,-0.422 0.047,-0.43 0.049,-0.438C0.05,-0.446 0.053,-0.454 0.055,-0.462C0.057,-0.47 0.059,-0.477 0.061,-0.485C0.064,-0.493 0.065,-0.501 0.068,-0.508C0.071,-0.516 0.074,-0.523 0.078,-0.531C0.081,-0.538 0.086,-0.545 0.09,-0.552C0.094,-0.559 0.1,-0.564 0.105,-0.571C0.109,-0.578 0.114,-0.584 0.119,-0.59C0.124,-0.597 0.127,-0.605 0.132,-0.611C0.138,-0.617 0.143,-0.624 0.148,-0.629C0.154,-0.635 0.162,-0.638 0.168,-0.643C0.175,-0.649 0.18,-0.655 0.187,-0.659C0.193,-0.664 0.199,-0.67 0.205,-0.675C0.212,-0.679 0.219,-0.684 0.226,-0.688C0.233,-0.692 0.24,-0.696 0.247,-0.7C0.254,-0.704 0.262,-0.707 0.269,-0.71C0.277,-0.713 0.286,-0.713 0.293,-0.716C0.301,-0.719 0.308,-0.721 0.316,-0.724C0.324,-0.726 0.331,-0.728 0.339,-0.73C0.347,-0.732 0.355,-0.736 0.363,-0.737C0.371,-0.739 0.379,-0.737 0.387,-0.738C0.395,-0.739 0.403,-0.74 0.411,-0.74C0.419,-0.741 0.427,-0.74 0.436,-0.74C0.444,-0.74 0.452,-0.744 0.46,-0.744C0.468,-0.743 0.476,-0.74 0.484,-0.739C0.492,-0.738 0.5,-0.735 0.508,-0.734C0.516,-0.732 0.524,-0.735 0.532,-0.733C0.54,-0.731 0.548,-0.728 0.556,-0.726C0.563,-0.724 0.571,-0.722 0.579,-0.719C0.587,-0.716 0.594,-0.711 0.601,-0.708C0.608,-0.705 0.616,-0.702 0.623,-0.698C0.63,-0.695 0.638,-0.692 0.645,-0.688C0.652,-0.684 0.658,-0.678 0.665,-0.674C0.672,-0.669 0.678,-0.664 0.684,-0.659C0.69,-0.654 0.698,-0.65 0.704,-0.645C0.71,-0.64 0.717,-0.635 0.723,-0.629C0.728,-0.624 0.733,-0.616 0.738,-0.61C0.743,-0.604 0.749,-0.599 0.754,-0.592C0.759,-0.586 0.764,-0.579 0.769,-0.573C0.773,-0.566 0.779,-0.56 0.783,-0.553C0.787,-0.546 0.787,-0.537 0.79,-0.529C0.794,-0.522 0.8,-0.516 0.803,-0.508C0.806,-0.501 0.807,-0.493 0.809,-0.485C0.812,-0.477 0.815,-0.47 0.817,-0.462C0.819,-0.454 0.823,-0.447 0.825,-0.439C0.826,-0.431 0.827,-0.423 0.828,-0.415C0.829,-0.407 0.827,-0.398 0.828,-0.39C0.828,-0.382 0.83,-0.374 0.83,-0.366C0.83,-0.358 0.829,-0.35 0.828,-0.342C0.828,-0.334 0.826,-0.326 0.825,-0.318C0.824,-0.31 0.824,-0.302 0.822,-0.294C0.82,-0.286 0.822,-0.277 0.82,-0.269C0.818,-0.261 0.813,-0.254 0.81,-0.247C0.808,-0.239 0.804,-0.232 0.801,-0.224C0.798,-0.217 0.797,-0.208 0.793,-0.201C0.79,-0.194 0.786,-0.187 0.782,-0.18C0.778,-0.173 0.775,-0.165 0.77,-0.158C0.765,-0.151 0.76,-0.145 0.755,-0.139C0.75,-0.132 0.743,-0.128 0.738,-0.121C0.732,-0.115 0.729,-0.108 0.723,-0.102C0.717,-0.096 0.711,-0.091 0.705,-0.086C0.699,-0.08 0.69,-0.078 0.684,-0.073C0.678,-0.068 0.671,-0.063 0.664,-0.058C0.658,-0.054 0.652,-0.047 0.645,-0.043C0.638,-0.039 0.63,-0.038 0.622,-0.034C0.615,-0.031 0.609,-0.024 0.602,-0.021C0.594,-0.018 0.586,-0.018 0.578,-0.015C0.57,-0.013 0.563,-0.009 0.555,-0.007C0.547,-0.004 0.54,-0.002 0.532,-0C0.524,0.001 0.516,0.005 0.508,0.007C0.5,0.008 0.492,0.007 0.484,0.007C0.476,0.008 0.468,0.008 0.46,0.009C0.452,0.009 0.444,0.011 0.436,0.011C0.427,0.011 0.419,0.013 0.411,0.012C0.403,0.012 0.395,0.011 0.387,0.01C0.379,0.009 0.371,0.004 0.363,0.003C0.355,0.002 0.347,0.003 0.339,0.001C0.331,-0.001 0.324,-0.006 0.316,-0.008C0.308,-0.01 0.299,-0.009 0.292,-0.012C0.284,-0.015 0.276,-0.017 0.269,-0.021C0.262,-0.024 0.255,-0.03 0.248,-0.033C0.241,-0.037 0.233,-0.039 0.226,-0.043C0.219,-0.047 0.214,-0.055 0.207,-0.059C0.2,-0.064 0.192,-0.066 0.185,-0.07C0.179,-0.075 0.172,-0.08 0.166,-0.086C0.16,-0.091 0.156,-0.099 0.151,-0.105C0.145,-0.11 0.137,-0.114 0.131,-0.12C0.126,-0.126 0.123,-0.134 0.118,-0.141C0.113,-0.147 0.106,-0.152 0.102,-0.159C0.097,-0.165 0.095,-0.173 0.091,-0.18C0.087,-0.187 0.082,-0.194 0.079,-0.201C0.075,-0.209 0.07,-0.215 0.067,-0.223C0.064,-0.23 0.065,-0.239 0.062,-0.247C0.059,-0.255 0.053,-0.261 0.051,-0.269C0.049,-0.277 0.049,-0.285 0.047,-0.293C0.046,-0.301 0.047,-0.31 0.046,-0.318C0.045,-0.326 0.041,-0.333 0.04,-0.342C0.04,-0.35 0.041,-0.358 0.041,-0.366ZM0.629,-0.366C0.629,-0.374 0.627,-0.382 0.626,-0.39C0.625,-0.398 0.627,-0.407 0.625,-0.415C0.624,-0.423 0.622,-0.431 0.62,-0.439C0.617,-0.446 0.615,-0.455 0.612,-0.462C0.609,-0.469 0.605,-0.477 0.601,-0.484C0.596,-0.491 0.59,-0.497 0.586,-0.503C0.58,-0.509 0.575,-0.515 0.569,-0.521C0.563,-0.526 0.557,-0.532 0.551,-0.537C0.544,-0.542 0.538,-0.548 0.531,-0.552C0.524,-0.555 0.516,-0.559 0.508,-0.562C0.501,-0.564 0.492,-0.564 0.484,-0.565C0.476,-0.567 0.468,-0.568 0.46,-0.569C0.452,-0.569 0.444,-0.573 0.436,-0.573C0.427,-0.573 0.419,-0.571 0.411,-0.571C0.403,-0.57 0.395,-0.567 0.387,-0.565C0.379,-0.563 0.372,-0.56 0.364,-0.558C0.356,-0.555 0.349,-0.552 0.342,-0.548C0.335,-0.544 0.328,-0.54 0.321,-0.536C0.315,-0.531 0.306,-0.528 0.3,-0.523C0.295,-0.517 0.289,-0.51 0.284,-0.504C0.279,-0.498 0.275,-0.491 0.271,-0.483C0.267,-0.476 0.265,-0.468 0.262,-0.461C0.259,-0.453 0.253,-0.447 0.251,-0.439C0.249,-0.431 0.247,-0.423 0.245,-0.415C0.244,-0.407 0.242,-0.399 0.241,-0.391C0.241,-0.383 0.244,-0.374 0.244,-0.366C0.244,-0.358 0.243,-0.35 0.243,-0.342C0.244,-0.333 0.243,-0.325 0.244,-0.317C0.246,-0.309 0.252,-0.302 0.254,-0.294C0.256,-0.286 0.258,-0.278 0.261,-0.271C0.265,-0.263 0.269,-0.257 0.273,-0.25C0.277,-0.242 0.28,-0.235 0.285,-0.228C0.29,-0.222 0.296,-0.216 0.302,-0.21C0.307,-0.204 0.315,-0.201 0.321,-0.196C0.328,-0.191 0.334,-0.185 0.341,-0.181C0.348,-0.177 0.355,-0.173 0.363,-0.17C0.37,-0.167 0.379,-0.167 0.387,-0.165C0.395,-0.163 0.403,-0.163 0.411,-0.162C0.419,-0.162 0.427,-0.159 0.436,-0.159C0.444,-0.159 0.452,-0.161 0.46,-0.162C0.468,-0.162 0.476,-0.164 0.484,-0.166C0.492,-0.167 0.499,-0.171 0.507,-0.173C0.515,-0.176 0.524,-0.176 0.531,-0.179C0.538,-0.183 0.544,-0.19 0.55,-0.195C0.557,-0.2 0.565,-0.203 0.571,-0.209C0.577,-0.214 0.581,-0.221 0.586,-0.228C0.591,-0.234 0.594,-0.242 0.598,-0.249C0.602,-0.256 0.607,-0.263 0.61,-0.271C0.613,-0.278 0.618,-0.285 0.62,-0.293C0.622,-0.301 0.623,-0.309 0.624,-0.317C0.626,-0.325 0.628,-0.333 0.629,-0.341C0.63,-0.349 0.629,-0.358 0.629,-0.366Z" style="fill-rule:nonzero;"/>
            </g>
            <g transform="matrix(200,0,0,200,224.081,830.671)">
                <path d="M0.422,0.009C0.414,0.009 0.406,0.01 0.398,0.01C0.39,0.009 0.383,0.007 0.375,0.006C0.367,0.005 0.359,0.003 0.351,0.002C0.343,-0 0.336,-0.002 0.328,-0.004C0.32,-0.006 0.312,-0.007 0.305,-0.009C0.297,-0.012 0.289,-0.012 0.281,-0.015C0.274,-0.018 0.268,-0.024 0.26,-0.027C0.253,-0.03 0.245,-0.032 0.238,-0.036C0.231,-0.04 0.225,-0.045 0.218,-0.049C0.212,-0.053 0.203,-0.055 0.196,-0.059C0.19,-0.064 0.185,-0.071 0.179,-0.076C0.172,-0.081 0.167,-0.086 0.161,-0.092C0.155,-0.097 0.149,-0.102 0.143,-0.108C0.138,-0.113 0.133,-0.12 0.128,-0.126C0.123,-0.132 0.116,-0.137 0.111,-0.143C0.106,-0.149 0.104,-0.157 0.099,-0.164C0.095,-0.171 0.091,-0.177 0.087,-0.184C0.083,-0.191 0.079,-0.198 0.076,-0.206C0.073,-0.213 0.067,-0.219 0.064,-0.227C0.061,-0.234 0.061,-0.243 0.059,-0.25C0.057,-0.258 0.055,-0.266 0.053,-0.273C0.051,-0.281 0.047,-0.288 0.045,-0.296C0.044,-0.304 0.043,-0.312 0.042,-0.32C0.041,-0.328 0.041,-0.336 0.04,-0.344C0.04,-0.352 0.042,-0.36 0.042,-0.368L0.042,-0.391C0.043,-0.399 0.04,-0.407 0.041,-0.415C0.042,-0.423 0.044,-0.431 0.046,-0.438C0.047,-0.446 0.049,-0.454 0.05,-0.461C0.052,-0.469 0.053,-0.477 0.055,-0.484C0.058,-0.492 0.062,-0.499 0.065,-0.506C0.068,-0.513 0.071,-0.52 0.075,-0.527C0.078,-0.535 0.08,-0.542 0.084,-0.549C0.088,-0.556 0.092,-0.563 0.096,-0.569C0.1,-0.576 0.105,-0.582 0.11,-0.588C0.114,-0.595 0.119,-0.601 0.124,-0.607C0.129,-0.613 0.132,-0.621 0.138,-0.626C0.143,-0.632 0.151,-0.636 0.156,-0.641C0.162,-0.646 0.167,-0.652 0.173,-0.658C0.179,-0.663 0.184,-0.669 0.191,-0.673C0.197,-0.678 0.205,-0.68 0.211,-0.685C0.218,-0.689 0.224,-0.695 0.231,-0.699C0.237,-0.702 0.245,-0.704 0.252,-0.708C0.26,-0.711 0.267,-0.713 0.274,-0.716C0.282,-0.719 0.288,-0.724 0.296,-0.726C0.303,-0.729 0.311,-0.729 0.319,-0.731C0.326,-0.733 0.334,-0.737 0.341,-0.738C0.349,-0.74 0.357,-0.741 0.365,-0.742C0.372,-0.743 0.38,-0.742 0.388,-0.743C0.396,-0.743 0.404,-0.746 0.412,-0.746C0.42,-0.746 0.428,-0.745 0.436,-0.745C0.445,-0.745 0.453,-0.742 0.461,-0.741C0.469,-0.74 0.477,-0.742 0.485,-0.74C0.494,-0.739 0.501,-0.734 0.509,-0.733C0.517,-0.731 0.525,-0.729 0.533,-0.727C0.541,-0.725 0.549,-0.723 0.556,-0.72C0.564,-0.717 0.573,-0.716 0.58,-0.713C0.588,-0.71 0.596,-0.707 0.603,-0.704C0.61,-0.7 0.616,-0.693 0.623,-0.689C0.63,-0.684 0.637,-0.681 0.644,-0.676C0.65,-0.671 0.657,-0.666 0.663,-0.661C0.67,-0.656 0.674,-0.648 0.68,-0.643C0.686,-0.637 0.692,-0.632 0.697,-0.625C0.702,-0.619 0.708,-0.613 0.713,-0.607C0.717,-0.601 0.719,-0.595 0.718,-0.589C0.717,-0.582 0.715,-0.574 0.709,-0.57C0.699,-0.563 0.696,-0.566 0.686,-0.559C0.675,-0.552 0.675,-0.551 0.664,-0.544C0.654,-0.537 0.654,-0.536 0.644,-0.528C0.633,-0.521 0.633,-0.521 0.623,-0.513C0.612,-0.506 0.612,-0.506 0.601,-0.498C0.596,-0.495 0.589,-0.493 0.583,-0.494C0.577,-0.495 0.572,-0.499 0.568,-0.504C0.563,-0.511 0.557,-0.516 0.551,-0.522C0.545,-0.528 0.539,-0.533 0.532,-0.538C0.525,-0.543 0.518,-0.546 0.51,-0.55C0.503,-0.554 0.497,-0.56 0.489,-0.563C0.481,-0.565 0.473,-0.568 0.465,-0.569C0.457,-0.571 0.448,-0.571 0.44,-0.572C0.432,-0.572 0.424,-0.573 0.415,-0.573C0.407,-0.573 0.399,-0.571 0.392,-0.57C0.384,-0.569 0.377,-0.568 0.369,-0.566C0.362,-0.564 0.354,-0.564 0.347,-0.561C0.339,-0.557 0.334,-0.552 0.327,-0.548C0.321,-0.544 0.314,-0.539 0.309,-0.534C0.303,-0.529 0.295,-0.526 0.29,-0.52C0.285,-0.514 0.282,-0.507 0.278,-0.5C0.273,-0.494 0.269,-0.487 0.265,-0.48C0.262,-0.473 0.259,-0.466 0.256,-0.459C0.253,-0.452 0.253,-0.444 0.251,-0.436C0.249,-0.429 0.245,-0.422 0.243,-0.414C0.242,-0.407 0.243,-0.399 0.242,-0.391C0.242,-0.383 0.243,-0.376 0.243,-0.368C0.243,-0.36 0.242,-0.352 0.243,-0.344C0.243,-0.336 0.243,-0.328 0.244,-0.321C0.246,-0.313 0.246,-0.305 0.248,-0.297C0.251,-0.29 0.253,-0.282 0.256,-0.275C0.259,-0.267 0.263,-0.26 0.266,-0.253C0.27,-0.246 0.276,-0.241 0.281,-0.234C0.285,-0.228 0.289,-0.221 0.295,-0.215C0.3,-0.209 0.305,-0.204 0.312,-0.199C0.318,-0.194 0.323,-0.188 0.33,-0.184C0.337,-0.18 0.345,-0.179 0.353,-0.176C0.36,-0.173 0.367,-0.169 0.374,-0.167C0.382,-0.165 0.39,-0.164 0.398,-0.163C0.405,-0.162 0.413,-0.16 0.421,-0.16C0.43,-0.16 0.437,-0.164 0.445,-0.164C0.453,-0.165 0.46,-0.166 0.468,-0.167C0.476,-0.169 0.484,-0.168 0.491,-0.17C0.499,-0.173 0.505,-0.178 0.512,-0.181C0.519,-0.185 0.527,-0.187 0.533,-0.192C0.54,-0.196 0.547,-0.2 0.553,-0.205C0.558,-0.21 0.564,-0.216 0.569,-0.222C0.574,-0.228 0.579,-0.234 0.583,-0.241C0.587,-0.246 0.591,-0.251 0.597,-0.253C0.603,-0.254 0.609,-0.252 0.615,-0.248C0.626,-0.241 0.627,-0.243 0.638,-0.236C0.649,-0.229 0.649,-0.228 0.659,-0.221C0.67,-0.214 0.67,-0.213 0.681,-0.206C0.692,-0.199 0.692,-0.2 0.703,-0.193C0.714,-0.186 0.715,-0.187 0.726,-0.18C0.731,-0.176 0.733,-0.169 0.735,-0.163C0.736,-0.157 0.736,-0.15 0.732,-0.145C0.728,-0.138 0.723,-0.132 0.718,-0.125C0.713,-0.119 0.707,-0.113 0.702,-0.107C0.696,-0.101 0.691,-0.095 0.685,-0.09C0.68,-0.084 0.676,-0.076 0.67,-0.07C0.664,-0.065 0.656,-0.062 0.65,-0.057C0.644,-0.052 0.637,-0.048 0.63,-0.044C0.623,-0.04 0.618,-0.033 0.61,-0.029C0.603,-0.025 0.595,-0.025 0.587,-0.022C0.58,-0.019 0.573,-0.016 0.565,-0.013C0.557,-0.01 0.55,-0.006 0.542,-0.004C0.535,-0.002 0.527,0.001 0.519,0.002C0.511,0.004 0.503,0.003 0.495,0.004C0.487,0.005 0.479,0.009 0.471,0.009C0.463,0.01 0.455,0.009 0.447,0.01C0.439,0.01 0.431,0.009 0.422,0.009Z" style="fill-rule:nonzero;"/>
            </g>
            <g transform="matrix(200,0,0,200,371.281,830.671)">
                <path d="M0.041,-0.366C0.041,-0.374 0.04,-0.382 0.04,-0.39C0.041,-0.399 0.044,-0.406 0.045,-0.414C0.046,-0.422 0.047,-0.43 0.049,-0.438C0.05,-0.446 0.053,-0.454 0.055,-0.462C0.057,-0.47 0.059,-0.477 0.061,-0.485C0.064,-0.493 0.065,-0.501 0.068,-0.508C0.071,-0.516 0.074,-0.523 0.078,-0.531C0.081,-0.538 0.086,-0.545 0.09,-0.552C0.094,-0.559 0.1,-0.564 0.105,-0.571C0.109,-0.578 0.114,-0.584 0.119,-0.59C0.124,-0.597 0.127,-0.605 0.132,-0.611C0.138,-0.617 0.143,-0.624 0.148,-0.629C0.154,-0.635 0.162,-0.638 0.168,-0.643C0.175,-0.649 0.18,-0.655 0.187,-0.659C0.193,-0.664 0.199,-0.67 0.205,-0.675C0.212,-0.679 0.219,-0.684 0.226,-0.688C0.233,-0.692 0.24,-0.696 0.247,-0.7C0.254,-0.704 0.262,-0.707 0.269,-0.71C0.277,-0.713 0.286,-0.713 0.293,-0.716C0.301,-0.719 0.308,-0.721 0.316,-0.724C0.324,-0.726 0.331,-0.728 0.339,-0.73C0.347,-0.732 0.355,-0.736 0.363,-0.737C0.371,-0.739 0.379,-0.737 0.387,-0.738C0.395,-0.739 0.403,-0.74 0.411,-0.74C0.419,-0.741 0.427,-0.74 0.436,-0.74C0.444,-0.74 0.452,-0.744 0.46,-0.744C0.468,-0.743 0.476,-0.74 0.484,-0.739C0.492,-0.738 0.5,-0.735 0.508,-0.734C0.516,-0.732 0.524,-0.735 0.532,-0.733C0.54,-0.731 0.548,-0.728 0.556,-0.726C0.563,-0.724 0.571,-0.722 0.579,-0.719C0.587,-0.716 0.594,-0.711 0.601,-0.708C0.608,-0.705 0.616,-0.702 0.623,-0.698C0.63,-0.695 0.638,-0.692 0.645,-0.688C0.652,-0.684 0.658,-0.678 0.665,-0.674C0.672,-0.669 0.678,-0.664 0.684,-0.659C0.69,-0.654 0.698,-0.65 0.704,-0.645C0.71,-0.64 0.717,-0.635 0.723,-0.629C0.728,-0.624 0.733,-0.616 0.738,-0.61C0.743,-0.604 0.749,-0.599 0.754,-0.592C0.759,-0.586 0.764,-0.579 0.769,-0.573C0.773,-0.566 0.779,-0.56 0.783,-0.553C0.787,-0.546 0.787,-0.537 0.79,-0.529C0.794,-0.522 0.8,-0.516 0.803,-0.508C0.806,-0.501 0.807,-0.493 0.809,-0.485C0.812,-0.477 0.815,-0.47 0.817,-0.462C0.819,-0.454 0.823,-0.447 0.825,-0.439C0.826,-0.431 0.827,-0.423 0.828,-0.415C0.829,-0.407 0.827,-0.398 0.828,-0.39C0.828,-0.382 0.83,-0.374 0.83,-0.366C0.83,-0.358 0.829,-0.35 0.828,-0.342C0.828,-0.334 0.826,-0.326 0.825,-0.318C0.824,-0.31 0.824,-0.302 0.822,-0.294C0.82,-0.286 0.822,-0.277 0.82,-0.269C0.818,-0.261 0.813,-0.254 0.81,-0.247C0.808,-0.239 0.804,-0.232 0.801,-0.224C0.798,-0.217 0.797,-0.208 0.793,-0.201C0.79,-0.194 0.786,-0.187 0.782,-0.18C0.778,-0.173 0.775,-0.165 0.77,-0.158C0.765,-0.151 0.76,-0.145 0.755,-0.139C0.75,-0.132 0.743,-0.128 0.738,-0.121C0.732,-0.115 0.729,-0.108 0.723,-0.102C0.717,-0.096 0.711,-0.091 0.705,-0.086C0.699,-0.08 0.69,-0.078 0.684,-0.073C0.678,-0.068 0.671,-0.063 0.664,-0.058C0.658,-0.054 0.652,-0.047 0.645,-0.043C0.638,-0.039 0.63,-0.038 0.622,-0.034C0.615,-0.031 0.609,-0.024 0.602,-0.021C0.594,-0.018 0.586,-0.018 0.578,-0.015C0.57,-0.013 0.563,-0.009 0.555,-0.007C0.547,-0.004 0.54,-0.002 0.532,-0C0.524,0.001 0.516,0.005 0.508,0.007C0.5,0.008 0.492,0.007 0.484,0.007C0.476,0.008 0.468,0.008 0.46,0.009C0.452,0.009 0.444,0.011 0.436,0.011C0.427,0.011 0.419,0.013 0.411,0.012C0.403,0.012 0.395,0.011 0.387,0.01C0.379,0.009 0.371,0.004 0.363,0.003C0.355,0.002 0.347,0.003 0.339,0.001C0.331,-0.001 0.324,-0.006 0.316,-0.008C0.308,-0.01 0.299,-0.009 0.292,-0.012C0.284,-0.015 0.276,-0.017 0.269,-0.021C0.262,-0.024 0.255,-0.03 0.248,-0.033C0.241,-0.037 0.233,-0.039 0.226,-0.043C0.219,-0.047 0.214,-0.055 0.207,-0.059C0.2,-0.064 0.192,-0.066 0.185,-0.07C0.179,-0.075 0.172,-0.08 0.166,-0.086C0.16,-0.091 0.156,-0.099 0.151,-0.105C0.145,-0.11 0.137,-0.114 0.131,-0.12C0.126,-0.126 0.123,-0.134 0.118,-0.141C0.113,-0.147 0.106,-0.152 0.102,-0.159C0.097,-0.165 0.095,-0.173 0.091,-0.18C0.087,-0.187 0.082,-0.194 0.079,-0.201C0.075,-0.209 0.07,-0.215 0.067,-0.223C0.064,-0.23 0.065,-0.239 0.062,-0.247C0.059,-0.255 0.053,-0.261 0.051,-0.269C0.049,-0.277 0.049,-0.285 0.047,-0.293C0.046,-0.301 0.047,-0.31 0.046,-0.318C0.045,-0.326 0.041,-0.333 0.04,-0.342C0.04,-0.35 0.041,-0.358 0.041,-0.366ZM0.629,-0.366C0.629,-0.374 0.627,-0.382 0.626,-0.39C0.625,-0.398 0.627,-0.407 0.625,-0.415C0.624,-0.423 0.622,-0.431 0.62,-0.439C0.617,-0.446 0.615,-0.455 0.612,-0.462C0.609,-0.469 0.605,-0.477 0.601,-0.484C0.596,-0.491 0.59,-0.497 0.586,-0.503C0.58,-0.509 0.575,-0.515 0.569,-0.521C0.563,-0.526 0.557,-0.532 0.551,-0.537C0.544,-0.542 0.538,-0.548 0.531,-0.552C0.524,-0.555 0.516,-0.559 0.508,-0.562C0.501,-0.564 0.492,-0.564 0.484,-0.565C0.476,-0.567 0.468,-0.568 0.46,-0.569C0.452,-0.569 0.444,-0.573 0.436,-0.573C0.427,-0.573 0.419,-0.571 0.411,-0.571C0.403,-0.57 0.395,-0.567 0.387,-0.565C0.379,-0.563 0.372,-0.56 0.364,-0.558C0.356,-0.555 0.349,-0.552 0.342,-0.548C0.335,-0.544 0.328,-0.54 0.321,-0.536C0.315,-0.531 0.306,-0.528 0.3,-0.523C0.295,-0.517 0.289,-0.51 0.284,-0.504C0.279,-0.498 0.275,-0.491 0.271,-0.483C0.267,-0.476 0.265,-0.468 0.262,-0.461C0.259,-0.453 0.253,-0.447 0.251,-0.439C0.249,-0.431 0.247,-0.423 0.245,-0.415C0.244,-0.407 0.242,-0.399 0.241,-0.391C0.241,-0.383 0.244,-0.374 0.244,-0.366C0.244,-0.358 0.243,-0.35 0.243,-0.342C0.244,-0.333 0.243,-0.325 0.244,-0.317C0.246,-0.309 0.252,-0.302 0.254,-0.294C0.256,-0.286 0.258,-0.278 0.261,-0.271C0.265,-0.263 0.269,-0.257 0.273,-0.25C0.277,-0.242 0.28,-0.235 0.285,-0.228C0.29,-0.222 0.296,-0.216 0.302,-0.21C0.307,-0.204 0.315,-0.201 0.321,-0.196C0.328,-0.191 0.334,-0.185 0.341,-0.181C0.348,-0.177 0.355,-0.173 0.363,-0.17C0.37,-0.167 0.379,-0.167 0.387,-0.165C0.395,-0.163 0.403,-0.163 0.411,-0.162C0.419,-0.162 0.427,-0.159 0.436,-0.159C0.444,-0.159 0.452,-0.161 0.46,-0.162C0.468,-0.162 0.476,-0.164 0.484,-0.166C0.492,-0.167 0.499,-0.171 0.507,-0.173C0.515,-0.176 0.524,-0.176 0.531,-0.179C0.538,-0.183 0.544,-0.19 0.55,-0.195C0.557,-0.2 0.565,-0.203 0.571,-0.209C0.577,-0.214 0.581,-0.221 0.586,-0.228C0.591,-0.234 0.594,-0.242 0.598,-0.249C0.602,-0.256 0.607,-0.263 0.61,-0.271C0.613,-0.278 0.618,-0.285 0.62,-0.293C0.622,-0.301 0.623,-0.309 0.624,-0.317C0.626,-0.325 0.628,-0.333 0.629,-0.341C0.63,-0.349 0.629,-0.358 0.629,-0.366Z" style="fill-rule:nonzero;"/>
            </g>
            <g transform="matrix(200,0,0,200,543.281,830.671)">
                <path d="M0.052,-0.738C0.054,-0.738 0.055,-0.739 0.056,-0.739C0.069,-0.738 0.083,-0.718 0.09,-0.71C0.098,-0.701 0.099,-0.701 0.107,-0.692C0.115,-0.683 0.112,-0.681 0.12,-0.672C0.128,-0.663 0.127,-0.662 0.135,-0.653C0.143,-0.644 0.145,-0.646 0.153,-0.637C0.161,-0.627 0.16,-0.627 0.168,-0.618C0.176,-0.609 0.175,-0.608 0.182,-0.599C0.19,-0.589 0.191,-0.59 0.199,-0.581C0.207,-0.572 0.209,-0.574 0.217,-0.564C0.224,-0.555 0.225,-0.555 0.232,-0.546C0.24,-0.537 0.24,-0.537 0.248,-0.528C0.256,-0.519 0.253,-0.516 0.261,-0.507C0.269,-0.498 0.269,-0.498 0.276,-0.489C0.284,-0.48 0.287,-0.482 0.295,-0.473C0.303,-0.464 0.303,-0.464 0.311,-0.455C0.319,-0.446 0.318,-0.445 0.326,-0.436C0.334,-0.427 0.333,-0.427 0.341,-0.417C0.349,-0.408 0.349,-0.408 0.357,-0.399C0.364,-0.39 0.365,-0.391 0.373,-0.381C0.381,-0.372 0.379,-0.371 0.387,-0.362C0.395,-0.352 0.395,-0.347 0.403,-0.337C0.411,-0.328 0.412,-0.329 0.42,-0.32C0.428,-0.311 0.426,-0.309 0.434,-0.3C0.438,-0.295 0.448,-0.296 0.453,-0.301C0.461,-0.31 0.459,-0.311 0.467,-0.32C0.475,-0.329 0.476,-0.329 0.484,-0.344C0.489,-0.354 0.491,-0.354 0.499,-0.363C0.507,-0.372 0.507,-0.372 0.515,-0.381C0.523,-0.39 0.525,-0.389 0.533,-0.398C0.541,-0.407 0.541,-0.407 0.549,-0.416C0.557,-0.425 0.555,-0.427 0.563,-0.436C0.571,-0.445 0.572,-0.445 0.58,-0.454C0.588,-0.463 0.588,-0.463 0.596,-0.472C0.604,-0.481 0.602,-0.483 0.61,-0.492C0.618,-0.501 0.621,-0.498 0.629,-0.508C0.637,-0.517 0.634,-0.519 0.642,-0.528C0.65,-0.537 0.653,-0.535 0.661,-0.544C0.669,-0.553 0.669,-0.553 0.677,-0.562C0.685,-0.571 0.683,-0.573 0.691,-0.582C0.699,-0.591 0.701,-0.589 0.709,-0.599C0.717,-0.608 0.715,-0.61 0.723,-0.619C0.731,-0.628 0.732,-0.627 0.74,-0.637C0.748,-0.646 0.75,-0.644 0.758,-0.653C0.766,-0.662 0.766,-0.662 0.774,-0.671C0.782,-0.68 0.78,-0.682 0.788,-0.691C0.796,-0.7 0.797,-0.7 0.805,-0.709C0.812,-0.717 0.817,-0.728 0.825,-0.735C0.826,-0.737 0.828,-0.738 0.829,-0.738C0.831,-0.739 0.834,-0.739 0.836,-0.739C0.838,-0.738 0.84,-0.738 0.841,-0.736C0.844,-0.733 0.844,-0.724 0.844,-0.72C0.845,-0.712 0.846,-0.705 0.846,-0.697C0.846,-0.685 0.845,-0.685 0.845,-0.673C0.845,-0.661 0.846,-0.661 0.846,-0.649C0.846,-0.637 0.845,-0.637 0.845,-0.625C0.845,-0.613 0.844,-0.613 0.844,-0.602C0.844,-0.59 0.848,-0.59 0.848,-0.578C0.848,-0.566 0.847,-0.566 0.847,-0.554C0.847,-0.542 0.846,-0.542 0.846,-0.53C0.846,-0.518 0.845,-0.518 0.845,-0.506C0.845,-0.494 0.846,-0.494 0.846,-0.482L0.846,-0.459C0.846,-0.447 0.847,-0.447 0.847,-0.435C0.847,-0.423 0.848,-0.423 0.848,-0.411C0.848,-0.399 0.844,-0.399 0.844,-0.387C0.844,-0.375 0.848,-0.375 0.848,-0.363L0.848,-0.339C0.848,-0.327 0.846,-0.327 0.846,-0.316C0.846,-0.304 0.844,-0.304 0.844,-0.292L0.844,-0.268C0.844,-0.256 0.845,-0.256 0.845,-0.244C0.845,-0.232 0.844,-0.232 0.844,-0.22C0.844,-0.208 0.848,-0.208 0.848,-0.196C0.848,-0.184 0.847,-0.184 0.847,-0.173L0.847,-0.125C0.847,-0.113 0.845,-0.113 0.845,-0.101C0.845,-0.089 0.844,-0.089 0.844,-0.077C0.844,-0.065 0.846,-0.065 0.846,-0.053C0.846,-0.041 0.848,-0.041 0.848,-0.03C0.848,-0.022 0.843,-0.015 0.838,-0.01C0.834,-0.005 0.826,-0.001 0.819,-0.001C0.807,-0.001 0.807,-0 0.796,-0C0.784,-0 0.784,-0.001 0.772,-0.001L0.749,-0.001C0.738,-0.001 0.738,-0.004 0.726,-0.004C0.715,-0.004 0.715,-0.003 0.703,-0.003C0.691,-0.003 0.691,-0.004 0.68,-0.004C0.672,-0.004 0.666,-0.005 0.661,-0.01C0.656,-0.015 0.653,-0.022 0.653,-0.03C0.653,-0.042 0.654,-0.042 0.654,-0.054L0.654,-0.102C0.654,-0.114 0.655,-0.114 0.655,-0.126C0.655,-0.138 0.651,-0.138 0.651,-0.15C0.651,-0.163 0.654,-0.163 0.654,-0.175L0.654,-0.199C0.654,-0.211 0.653,-0.211 0.653,-0.223C0.653,-0.235 0.652,-0.235 0.652,-0.247C0.652,-0.259 0.664,-0.268 0.653,-0.272C0.642,-0.276 0.645,-0.262 0.638,-0.253C0.631,-0.243 0.631,-0.242 0.624,-0.233C0.617,-0.223 0.616,-0.224 0.609,-0.214C0.602,-0.205 0.601,-0.206 0.594,-0.196C0.587,-0.186 0.59,-0.184 0.583,-0.174C0.575,-0.165 0.572,-0.167 0.565,-0.158C0.558,-0.148 0.56,-0.147 0.552,-0.137C0.545,-0.128 0.544,-0.129 0.536,-0.119C0.529,-0.11 0.531,-0.109 0.524,-0.099C0.516,-0.089 0.516,-0.09 0.509,-0.08C0.502,-0.071 0.502,-0.071 0.495,-0.061C0.487,-0.051 0.488,-0.051 0.48,-0.042C0.477,-0.038 0.474,-0.034 0.47,-0.03C0.467,-0.026 0.464,-0.021 0.459,-0.017C0.456,-0.015 0.453,-0.013 0.45,-0.012C0.447,-0.011 0.443,-0.011 0.44,-0.012C0.437,-0.013 0.435,-0.015 0.433,-0.017C0.429,-0.021 0.425,-0.025 0.421,-0.03C0.418,-0.034 0.416,-0.038 0.413,-0.042C0.405,-0.052 0.404,-0.051 0.396,-0.06C0.389,-0.07 0.391,-0.072 0.383,-0.081C0.376,-0.091 0.375,-0.09 0.368,-0.1C0.36,-0.109 0.361,-0.11 0.353,-0.12C0.346,-0.129 0.343,-0.127 0.336,-0.137C0.328,-0.146 0.331,-0.148 0.323,-0.158C0.316,-0.168 0.316,-0.167 0.308,-0.177C0.301,-0.187 0.3,-0.186 0.292,-0.195C0.285,-0.205 0.284,-0.205 0.277,-0.214C0.269,-0.224 0.268,-0.223 0.261,-0.233C0.253,-0.242 0.254,-0.243 0.246,-0.252C0.239,-0.262 0.244,-0.277 0.233,-0.273C0.221,-0.269 0.234,-0.26 0.234,-0.248C0.234,-0.236 0.231,-0.236 0.231,-0.224C0.231,-0.212 0.235,-0.212 0.235,-0.2L0.235,-0.175C0.235,-0.163 0.234,-0.163 0.234,-0.151C0.234,-0.139 0.235,-0.139 0.235,-0.127C0.235,-0.115 0.231,-0.115 0.231,-0.102C0.231,-0.09 0.234,-0.09 0.234,-0.078C0.234,-0.066 0.231,-0.066 0.231,-0.054C0.231,-0.042 0.232,-0.042 0.232,-0.03C0.232,-0.022 0.229,-0.016 0.225,-0.011C0.22,-0.006 0.213,-0 0.206,-0L0.183,-0C0.172,-0 0.172,-0.001 0.16,-0.001C0.149,-0.001 0.149,-0 0.137,-0C0.126,-0 0.126,-0.002 0.114,-0.002C0.103,-0.002 0.103,-0.001 0.091,-0.001C0.08,-0.001 0.08,-0 0.069,-0C0.061,-0 0.053,-0.004 0.048,-0.009C0.043,-0.014 0.04,-0.022 0.04,-0.03C0.04,-0.042 0.044,-0.042 0.044,-0.054C0.044,-0.066 0.042,-0.066 0.042,-0.077C0.043,-0.089 0.041,-0.089 0.041,-0.101C0.041,-0.113 0.04,-0.113 0.04,-0.125L0.04,-0.149C0.04,-0.161 0.042,-0.161 0.042,-0.173L0.042,-0.197C0.043,-0.208 0.043,-0.208 0.043,-0.22L0.043,-0.244C0.043,-0.256 0.044,-0.256 0.045,-0.268C0.045,-0.28 0.043,-0.28 0.044,-0.292C0.044,-0.304 0.044,-0.304 0.045,-0.316C0.045,-0.328 0.043,-0.328 0.043,-0.339C0.043,-0.351 0.046,-0.351 0.046,-0.363C0.047,-0.375 0.046,-0.375 0.046,-0.387C0.047,-0.399 0.044,-0.399 0.044,-0.411L0.044,-0.435C0.044,-0.447 0.047,-0.447 0.047,-0.459C0.047,-0.471 0.044,-0.471 0.044,-0.482C0.045,-0.494 0.044,-0.494 0.044,-0.506C0.044,-0.518 0.045,-0.518 0.045,-0.53L0.045,-0.554C0.045,-0.566 0.046,-0.566 0.046,-0.578C0.046,-0.59 0.047,-0.59 0.047,-0.602C0.048,-0.613 0.049,-0.613 0.049,-0.625C0.049,-0.637 0.047,-0.637 0.047,-0.649C0.047,-0.661 0.048,-0.661 0.048,-0.673C0.048,-0.685 0.046,-0.685 0.046,-0.697C0.046,-0.706 0.041,-0.733 0.052,-0.738Z" style="fill-rule:nonzero;"/>
            </g>
            <g transform="matrix(200,0,0,200,720.881,830.671)">
                <path d="M0.207,-0.003C0.196,-0.003 0.196,-0 0.185,-0C0.174,-0 0.174,-0.001 0.163,-0.001C0.152,-0.001 0.152,-0.003 0.141,-0.003C0.13,-0.003 0.13,-0.001 0.119,-0.001C0.108,-0.001 0.108,-0.002 0.097,-0.002L0.074,-0.002C0.066,-0.002 0.059,-0.005 0.053,-0.011C0.047,-0.017 0.042,-0.024 0.042,-0.033L0.042,-0.057C0.042,-0.069 0.041,-0.069 0.041,-0.081L0.041,-0.105C0.041,-0.117 0.042,-0.117 0.042,-0.129C0.042,-0.141 0.041,-0.141 0.041,-0.153C0.041,-0.165 0.044,-0.165 0.044,-0.177C0.044,-0.189 0.04,-0.189 0.04,-0.201C0.04,-0.213 0.043,-0.213 0.043,-0.225C0.043,-0.237 0.044,-0.237 0.044,-0.248C0.044,-0.26 0.042,-0.26 0.042,-0.272L0.042,-0.296C0.042,-0.308 0.043,-0.308 0.043,-0.32C0.043,-0.332 0.041,-0.332 0.041,-0.344C0.041,-0.356 0.044,-0.356 0.044,-0.368C0.044,-0.38 0.04,-0.38 0.04,-0.392C0.04,-0.404 0.043,-0.404 0.043,-0.416L0.043,-0.464C0.043,-0.476 0.044,-0.476 0.044,-0.488C0.044,-0.5 0.041,-0.5 0.041,-0.512C0.041,-0.524 0.04,-0.524 0.04,-0.536C0.04,-0.548 0.041,-0.548 0.041,-0.56C0.041,-0.572 0.042,-0.572 0.042,-0.584C0.042,-0.596 0.041,-0.596 0.041,-0.608C0.041,-0.619 0.044,-0.619 0.044,-0.631C0.044,-0.643 0.042,-0.643 0.042,-0.655C0.042,-0.667 0.044,-0.667 0.044,-0.679C0.044,-0.691 0.042,-0.691 0.042,-0.703C0.042,-0.712 0.046,-0.721 0.051,-0.726C0.057,-0.732 0.066,-0.735 0.074,-0.735C0.087,-0.735 0.087,-0.736 0.099,-0.736L0.147,-0.736C0.159,-0.736 0.159,-0.737 0.171,-0.737C0.183,-0.737 0.183,-0.735 0.195,-0.735C0.207,-0.735 0.207,-0.736 0.219,-0.736C0.231,-0.736 0.231,-0.735 0.243,-0.735C0.255,-0.735 0.255,-0.737 0.267,-0.737C0.279,-0.737 0.279,-0.734 0.291,-0.734C0.303,-0.734 0.303,-0.736 0.315,-0.736C0.327,-0.736 0.327,-0.738 0.339,-0.738C0.348,-0.738 0.356,-0.737 0.364,-0.736C0.372,-0.736 0.38,-0.734 0.388,-0.733C0.397,-0.732 0.405,-0.731 0.413,-0.729C0.421,-0.728 0.429,-0.728 0.437,-0.726C0.445,-0.724 0.452,-0.718 0.46,-0.716C0.468,-0.713 0.476,-0.712 0.484,-0.709C0.491,-0.706 0.498,-0.7 0.505,-0.696C0.512,-0.692 0.52,-0.689 0.527,-0.685C0.533,-0.68 0.538,-0.672 0.544,-0.667C0.55,-0.662 0.556,-0.656 0.562,-0.651C0.568,-0.645 0.573,-0.639 0.578,-0.632C0.583,-0.626 0.59,-0.62 0.594,-0.613C0.598,-0.606 0.6,-0.598 0.604,-0.591C0.607,-0.583 0.611,-0.576 0.613,-0.568C0.616,-0.561 0.619,-0.553 0.621,-0.545C0.623,-0.537 0.626,-0.529 0.628,-0.521C0.629,-0.513 0.628,-0.505 0.628,-0.496C0.629,-0.488 0.629,-0.48 0.629,-0.472C0.629,-0.464 0.628,-0.456 0.628,-0.448C0.627,-0.439 0.626,-0.431 0.625,-0.423C0.624,-0.415 0.623,-0.407 0.621,-0.399C0.619,-0.391 0.617,-0.383 0.615,-0.376C0.612,-0.368 0.608,-0.361 0.604,-0.353C0.601,-0.346 0.595,-0.34 0.591,-0.333C0.587,-0.326 0.582,-0.32 0.577,-0.313C0.572,-0.307 0.569,-0.299 0.563,-0.293C0.558,-0.287 0.552,-0.281 0.546,-0.276C0.54,-0.27 0.531,-0.268 0.525,-0.263C0.518,-0.259 0.512,-0.254 0.504,-0.25C0.497,-0.246 0.491,-0.241 0.483,-0.238C0.476,-0.234 0.468,-0.231 0.46,-0.228C0.453,-0.226 0.445,-0.223 0.437,-0.221C0.429,-0.219 0.421,-0.218 0.413,-0.216C0.405,-0.215 0.396,-0.217 0.388,-0.216C0.38,-0.215 0.372,-0.214 0.364,-0.213C0.356,-0.213 0.348,-0.212 0.339,-0.212C0.328,-0.212 0.328,-0.21 0.317,-0.21C0.305,-0.21 0.305,-0.213 0.294,-0.213L0.271,-0.213C0.262,-0.213 0.253,-0.209 0.247,-0.203C0.241,-0.197 0.241,-0.188 0.241,-0.179C0.241,-0.167 0.239,-0.167 0.239,-0.155C0.239,-0.143 0.237,-0.143 0.237,-0.131C0.237,-0.118 0.24,-0.118 0.24,-0.106L0.24,-0.082C0.24,-0.07 0.241,-0.07 0.241,-0.057C0.241,-0.045 0.239,-0.045 0.239,-0.033C0.239,-0.024 0.235,-0.016 0.229,-0.01C0.224,-0.004 0.215,-0.003 0.207,-0.003ZM0.33,-0.374C0.338,-0.374 0.345,-0.377 0.352,-0.378C0.36,-0.379 0.368,-0.38 0.375,-0.383C0.382,-0.385 0.39,-0.387 0.396,-0.391C0.403,-0.395 0.408,-0.402 0.412,-0.408C0.417,-0.413 0.422,-0.42 0.425,-0.427C0.428,-0.434 0.43,-0.441 0.432,-0.449C0.433,-0.456 0.434,-0.464 0.434,-0.472C0.434,-0.48 0.432,-0.488 0.43,-0.495C0.429,-0.503 0.427,-0.51 0.424,-0.517C0.421,-0.524 0.416,-0.53 0.412,-0.536C0.407,-0.542 0.401,-0.546 0.394,-0.551C0.388,-0.555 0.382,-0.559 0.375,-0.562C0.368,-0.564 0.36,-0.565 0.352,-0.567C0.345,-0.568 0.338,-0.571 0.33,-0.571C0.315,-0.571 0.315,-0.567 0.3,-0.567C0.286,-0.567 0.286,-0.57 0.271,-0.57C0.262,-0.57 0.253,-0.567 0.247,-0.561C0.241,-0.555 0.239,-0.546 0.239,-0.537L0.239,-0.511C0.239,-0.498 0.238,-0.498 0.238,-0.485C0.238,-0.472 0.24,-0.472 0.24,-0.46C0.24,-0.447 0.237,-0.447 0.237,-0.434C0.237,-0.421 0.241,-0.421 0.241,-0.408C0.241,-0.399 0.242,-0.39 0.248,-0.385C0.253,-0.379 0.262,-0.374 0.271,-0.374C0.286,-0.374 0.286,-0.376 0.3,-0.375C0.315,-0.375 0.315,-0.374 0.33,-0.374Z" style="fill-rule:nonzero;"/>
            </g>
            <g transform="matrix(200,0,0,200,850.681,830.671)">
                <path d="M0.041,-0.366C0.041,-0.374 0.04,-0.382 0.04,-0.39C0.041,-0.399 0.044,-0.406 0.045,-0.414C0.046,-0.422 0.047,-0.43 0.049,-0.438C0.05,-0.446 0.053,-0.454 0.055,-0.462C0.057,-0.47 0.059,-0.477 0.061,-0.485C0.064,-0.493 0.065,-0.501 0.068,-0.508C0.071,-0.516 0.074,-0.523 0.078,-0.531C0.081,-0.538 0.086,-0.545 0.09,-0.552C0.094,-0.559 0.1,-0.564 0.105,-0.571C0.109,-0.578 0.114,-0.584 0.119,-0.59C0.124,-0.597 0.127,-0.605 0.132,-0.611C0.138,-0.617 0.143,-0.624 0.148,-0.629C0.154,-0.635 0.162,-0.638 0.168,-0.643C0.175,-0.649 0.18,-0.655 0.187,-0.659C0.193,-0.664 0.199,-0.67 0.205,-0.675C0.212,-0.679 0.219,-0.684 0.226,-0.688C0.233,-0.692 0.24,-0.696 0.247,-0.7C0.254,-0.704 0.262,-0.707 0.269,-0.71C0.277,-0.713 0.286,-0.713 0.293,-0.716C0.301,-0.719 0.308,-0.721 0.316,-0.724C0.324,-0.726 0.331,-0.728 0.339,-0.73C0.347,-0.732 0.355,-0.736 0.363,-0.737C0.371,-0.739 0.379,-0.737 0.387,-0.738C0.395,-0.739 0.403,-0.74 0.411,-0.74C0.419,-0.741 0.427,-0.74 0.436,-0.74C0.444,-0.74 0.452,-0.744 0.46,-0.744C0.468,-0.743 0.476,-0.74 0.484,-0.739C0.492,-0.738 0.5,-0.735 0.508,-0.734C0.516,-0.732 0.524,-0.735 0.532,-0.733C0.54,-0.731 0.548,-0.728 0.556,-0.726C0.563,-0.724 0.571,-0.722 0.579,-0.719C0.587,-0.716 0.594,-0.711 0.601,-0.708C0.608,-0.705 0.616,-0.702 0.623,-0.698C0.63,-0.695 0.638,-0.692 0.645,-0.688C0.652,-0.684 0.658,-0.678 0.665,-0.674C0.672,-0.669 0.678,-0.664 0.684,-0.659C0.69,-0.654 0.698,-0.65 0.704,-0.645C0.71,-0.64 0.717,-0.635 0.723,-0.629C0.728,-0.624 0.733,-0.616 0.738,-0.61C0.743,-0.604 0.749,-0.599 0.754,-0.592C0.759,-0.586 0.764,-0.579 0.769,-0.573C0.773,-0.566 0.779,-0.56 0.783,-0.553C0.787,-0.546 0.787,-0.537 0.79,-0.529C0.794,-0.522 0.8,-0.516 0.803,-0.508C0.806,-0.501 0.807,-0.493 0.809,-0.485C0.812,-0.477 0.815,-0.47 0.817,-0.462C0.819,-0.454 0.823,-0.447 0.825,-0.439C0.826,-0.431 0.827,-0.423 0.828,-0.415C0.829,-0.407 0.827,-0.398 0.828,-0.39C0.828,-0.382 0.83,-0.374 0.83,-0.366C0.83,-0.358 0.829,-0.35 0.828,-0.342C0.828,-0.334 0.826,-0.326 0.825,-0.318C0.824,-0.31 0.824,-0.302 0.822,-0.294C0.82,-0.286 0.822,-0.277 0.82,-0.269C0.818,-0.261 0.813,-0.254 0.81,-0.247C0.808,-0.239 0.804,-0.232 0.801,-0.224C0.798,-0.217 0.797,-0.208 0.793,-0.201C0.79,-0.194 0.786,-0.187 0.782,-0.18C0.778,-0.173 0.775,-0.165 0.77,-0.158C0.765,-0.151 0.76,-0.145 0.755,-0.139C0.75,-0.132 0.743,-0.128 0.738,-0.121C0.732,-0.115 0.729,-0.108 0.723,-0.102C0.717,-0.096 0.711,-0.091 0.705,-0.086C0.699,-0.08 0.69,-0.078 0.684,-0.073C0.678,-0.068 0.671,-0.063 0.664,-0.058C0.658,-0.054 0.652,-0.047 0.645,-0.043C0.638,-0.039 0.63,-0.038 0.622,-0.034C0.615,-0.031 0.609,-0.024 0.602,-0.021C0.594,-0.018 0.586,-0.018 0.578,-0.015C0.57,-0.013 0.563,-0.009 0.555,-0.007C0.547,-0.004 0.54,-0.002 0.532,-0C0.524,0.001 0.516,0.005 0.508,0.007C0.5,0.008 0.492,0.007 0.484,0.007C0.476,0.008 0.468,0.008 0.46,0.009C0.452,0.009 0.444,0.011 0.436,0.011C0.427,0.011 0.419,0.013 0.411,0.012C0.403,0.012 0.395,0.011 0.387,0.01C0.379,0.009 0.371,0.004 0.363,0.003C0.355,0.002 0.347,0.003 0.339,0.001C0.331,-0.001 0.324,-0.006 0.316,-0.008C0.308,-0.01 0.299,-0.009 0.292,-0.012C0.284,-0.015 0.276,-0.017 0.269,-0.021C0.262,-0.024 0.255,-0.03 0.248,-0.033C0.241,-0.037 0.233,-0.039 0.226,-0.043C0.219,-0.047 0.214,-0.055 0.207,-0.059C0.2,-0.064 0.192,-0.066 0.185,-0.07C0.179,-0.075 0.172,-0.08 0.166,-0.086C0.16,-0.091 0.156,-0.099 0.151,-0.105C0.145,-0.11 0.137,-0.114 0.131,-0.12C0.126,-0.126 0.123,-0.134 0.118,-0.141C0.113,-0.147 0.106,-0.152 0.102,-0.159C0.097,-0.165 0.095,-0.173 0.091,-0.18C0.087,-0.187 0.082,-0.194 0.079,-0.201C0.075,-0.209 0.07,-0.215 0.067,-0.223C0.064,-0.23 0.065,-0.239 0.062,-0.247C0.059,-0.255 0.053,-0.261 0.051,-0.269C0.049,-0.277 0.049,-0.285 0.047,-0.293C0.046,-0.301 0.047,-0.31 0.046,-0.318C0.045,-0.326 0.041,-0.333 0.04,-0.342C0.04,-0.35 0.041,-0.358 0.041,-0.366ZM0.629,-0.366C0.629,-0.374 0.627,-0.382 0.626,-0.39C0.625,-0.398 0.627,-0.407 0.625,-0.415C0.624,-0.423 0.622,-0.431 0.62,-0.439C0.617,-0.446 0.615,-0.455 0.612,-0.462C0.609,-0.469 0.605,-0.477 0.601,-0.484C0.596,-0.491 0.59,-0.497 0.586,-0.503C0.58,-0.509 0.575,-0.515 0.569,-0.521C0.563,-0.526 0.557,-0.532 0.551,-0.537C0.544,-0.542 0.538,-0.548 0.531,-0.552C0.524,-0.555 0.516,-0.559 0.508,-0.562C0.501,-0.564 0.492,-0.564 0.484,-0.565C0.476,-0.567 0.468,-0.568 0.46,-0.569C0.452,-0.569 0.444,-0.573 0.436,-0.573C0.427,-0.573 0.419,-0.571 0.411,-0.571C0.403,-0.57 0.395,-0.567 0.387,-0.565C0.379,-0.563 0.372,-0.56 0.364,-0.558C0.356,-0.555 0.349,-0.552 0.342,-0.548C0.335,-0.544 0.328,-0.54 0.321,-0.536C0.315,-0.531 0.306,-0.528 0.3,-0.523C0.295,-0.517 0.289,-0.51 0.284,-0.504C0.279,-0.498 0.275,-0.491 0.271,-0.483C0.267,-0.476 0.265,-0.468 0.262,-0.461C0.259,-0.453 0.253,-0.447 0.251,-0.439C0.249,-0.431 0.247,-0.423 0.245,-0.415C0.244,-0.407 0.242,-0.399 0.241,-0.391C0.241,-0.383 0.244,-0.374 0.244,-0.366C0.244,-0.358 0.243,-0.35 0.243,-0.342C0.244,-0.333 0.243,-0.325 0.244,-0.317C0.246,-0.309 0.252,-0.302 0.254,-0.294C0.256,-0.286 0.258,-0.278 0.261,-0.271C0.265,-0.263 0.269,-0.257 0.273,-0.25C0.277,-0.242 0.28,-0.235 0.285,-0.228C0.29,-0.222 0.296,-0.216 0.302,-0.21C0.307,-0.204 0.315,-0.201 0.321,-0.196C0.328,-0.191 0.334,-0.185 0.341,-0.181C0.348,-0.177 0.355,-0.173 0.363,-0.17C0.37,-0.167 0.379,-0.167 0.387,-0.165C0.395,-0.163 0.403,-0.163 0.411,-0.162C0.419,-0.162 0.427,-0.159 0.436,-0.159C0.444,-0.159 0.452,-0.161 0.46,-0.162C0.468,-0.162 0.476,-0.164 0.484,-0.166C0.492,-0.167 0.499,-0.171 0.507,-0.173C0.515,-0.176 0.524,-0.176 0.531,-0.179C0.538,-0.183 0.544,-0.19 0.55,-0.195C0.557,-0.2 0.565,-0.203 0.571,-0.209C0.577,-0.214 0.581,-0.221 0.586,-0.228C0.591,-0.234 0.594,-0.242 0.598,-0.249C0.602,-0.256 0.607,-0.263 0.61,-0.271C0.613,-0.278 0.618,-0.285 0.62,-0.293C0.622,-0.301 0.623,-0.309 0.624,-0.317C0.626,-0.325 0.628,-0.333 0.629,-0.341C0.63,-0.349 0.629,-0.358 0.629,-0.366Z" style="fill-rule:nonzero;"/>
            </g>
            <g transform="matrix(200,0,0,200,1016.68,830.671)">
                <path d="M0.048,-0.139C0.057,-0.145 0.058,-0.144 0.067,-0.151C0.076,-0.158 0.075,-0.159 0.084,-0.166C0.093,-0.173 0.091,-0.175 0.1,-0.182C0.11,-0.188 0.111,-0.186 0.12,-0.193C0.129,-0.2 0.128,-0.201 0.137,-0.208C0.146,-0.215 0.147,-0.214 0.156,-0.221C0.165,-0.227 0.178,-0.227 0.186,-0.219C0.191,-0.213 0.196,-0.208 0.202,-0.202C0.207,-0.197 0.213,-0.192 0.219,-0.188C0.225,-0.183 0.231,-0.178 0.237,-0.174C0.244,-0.17 0.251,-0.166 0.258,-0.164C0.265,-0.161 0.272,-0.159 0.28,-0.157C0.287,-0.156 0.295,-0.156 0.303,-0.155C0.31,-0.154 0.318,-0.153 0.326,-0.153C0.334,-0.153 0.343,-0.155 0.35,-0.156C0.359,-0.157 0.367,-0.157 0.374,-0.16C0.383,-0.162 0.391,-0.165 0.397,-0.169C0.404,-0.174 0.41,-0.18 0.413,-0.187C0.417,-0.194 0.418,-0.202 0.418,-0.211C0.418,-0.221 0.415,-0.228 0.411,-0.235C0.406,-0.242 0.401,-0.248 0.393,-0.253C0.387,-0.257 0.38,-0.262 0.371,-0.266C0.363,-0.269 0.355,-0.272 0.346,-0.275C0.336,-0.278 0.335,-0.276 0.324,-0.279C0.313,-0.283 0.314,-0.285 0.303,-0.289C0.292,-0.293 0.292,-0.291 0.281,-0.294C0.27,-0.298 0.27,-0.299 0.26,-0.303C0.252,-0.305 0.244,-0.307 0.237,-0.309C0.229,-0.312 0.223,-0.319 0.216,-0.322C0.209,-0.325 0.2,-0.326 0.193,-0.329C0.186,-0.333 0.181,-0.34 0.174,-0.344C0.167,-0.349 0.16,-0.352 0.154,-0.357C0.147,-0.362 0.143,-0.369 0.137,-0.374C0.132,-0.38 0.124,-0.384 0.119,-0.39C0.114,-0.396 0.112,-0.405 0.108,-0.411C0.104,-0.418 0.098,-0.424 0.095,-0.431C0.092,-0.439 0.09,-0.446 0.087,-0.454C0.085,-0.461 0.084,-0.469 0.083,-0.477C0.081,-0.485 0.081,-0.493 0.08,-0.501C0.079,-0.509 0.076,-0.516 0.076,-0.525C0.076,-0.533 0.077,-0.54 0.078,-0.548C0.079,-0.556 0.079,-0.564 0.081,-0.571C0.082,-0.579 0.085,-0.586 0.087,-0.594C0.09,-0.601 0.093,-0.608 0.096,-0.615C0.099,-0.622 0.103,-0.629 0.107,-0.636C0.111,-0.642 0.115,-0.649 0.12,-0.655C0.125,-0.661 0.129,-0.668 0.134,-0.674C0.14,-0.679 0.147,-0.683 0.153,-0.688C0.159,-0.693 0.165,-0.698 0.172,-0.702C0.179,-0.706 0.186,-0.709 0.193,-0.713C0.199,-0.716 0.206,-0.721 0.213,-0.724C0.22,-0.727 0.228,-0.73 0.235,-0.732C0.243,-0.734 0.251,-0.733 0.259,-0.735C0.266,-0.737 0.274,-0.738 0.281,-0.74C0.289,-0.741 0.297,-0.743 0.304,-0.744C0.312,-0.744 0.32,-0.746 0.328,-0.746C0.336,-0.746 0.344,-0.746 0.351,-0.745C0.359,-0.745 0.367,-0.744 0.375,-0.744C0.382,-0.743 0.39,-0.742 0.398,-0.741C0.406,-0.74 0.413,-0.735 0.42,-0.733C0.428,-0.732 0.436,-0.73 0.443,-0.728C0.451,-0.726 0.459,-0.727 0.466,-0.724C0.474,-0.721 0.48,-0.715 0.486,-0.712C0.494,-0.709 0.501,-0.706 0.507,-0.702C0.514,-0.698 0.522,-0.696 0.528,-0.691C0.535,-0.687 0.541,-0.683 0.547,-0.678C0.553,-0.673 0.557,-0.666 0.563,-0.661C0.571,-0.652 0.574,-0.639 0.566,-0.631C0.558,-0.622 0.558,-0.622 0.549,-0.613C0.541,-0.604 0.539,-0.606 0.53,-0.598C0.522,-0.589 0.522,-0.589 0.513,-0.58C0.505,-0.572 0.506,-0.57 0.498,-0.561C0.489,-0.553 0.488,-0.554 0.479,-0.546C0.471,-0.537 0.461,-0.537 0.453,-0.544C0.447,-0.549 0.439,-0.553 0.432,-0.557C0.425,-0.562 0.419,-0.567 0.411,-0.57C0.404,-0.573 0.395,-0.574 0.387,-0.576C0.379,-0.578 0.372,-0.582 0.363,-0.582C0.355,-0.583 0.347,-0.581 0.339,-0.581C0.33,-0.581 0.322,-0.58 0.314,-0.579C0.305,-0.577 0.298,-0.575 0.291,-0.571C0.284,-0.566 0.276,-0.562 0.272,-0.555C0.268,-0.548 0.269,-0.54 0.269,-0.531C0.269,-0.521 0.271,-0.513 0.275,-0.506C0.28,-0.499 0.284,-0.491 0.293,-0.486C0.3,-0.482 0.31,-0.482 0.32,-0.479C0.332,-0.474 0.331,-0.473 0.344,-0.469C0.356,-0.465 0.356,-0.465 0.368,-0.46C0.38,-0.456 0.404,-0.448 0.416,-0.444C0.424,-0.441 0.432,-0.437 0.439,-0.434C0.447,-0.431 0.456,-0.431 0.463,-0.428C0.471,-0.425 0.479,-0.422 0.486,-0.418C0.494,-0.414 0.5,-0.409 0.507,-0.405C0.514,-0.4 0.522,-0.396 0.528,-0.392C0.535,-0.387 0.543,-0.383 0.549,-0.378C0.555,-0.372 0.56,-0.365 0.565,-0.359C0.571,-0.353 0.575,-0.345 0.579,-0.339C0.584,-0.332 0.591,-0.326 0.594,-0.319C0.598,-0.311 0.599,-0.303 0.601,-0.295C0.604,-0.287 0.609,-0.28 0.611,-0.272C0.612,-0.264 0.611,-0.255 0.611,-0.247C0.612,-0.239 0.612,-0.23 0.612,-0.222C0.612,-0.214 0.611,-0.206 0.61,-0.198C0.61,-0.19 0.609,-0.182 0.608,-0.174C0.606,-0.166 0.606,-0.158 0.604,-0.15C0.602,-0.142 0.6,-0.134 0.597,-0.127C0.594,-0.119 0.591,-0.111 0.587,-0.104C0.584,-0.097 0.579,-0.09 0.574,-0.083C0.57,-0.077 0.562,-0.073 0.556,-0.067C0.551,-0.061 0.546,-0.055 0.539,-0.05C0.533,-0.045 0.527,-0.039 0.521,-0.035C0.514,-0.03 0.507,-0.025 0.5,-0.022C0.493,-0.018 0.484,-0.018 0.476,-0.015C0.469,-0.012 0.462,-0.007 0.454,-0.004C0.447,-0.002 0.439,-0.002 0.431,-0C0.423,0.002 0.415,0.002 0.406,0.003C0.399,0.004 0.391,0.006 0.383,0.007C0.375,0.008 0.367,0.008 0.358,0.008C0.351,0.008 0.343,0.012 0.334,0.012C0.326,0.012 0.318,0.01 0.309,0.009C0.301,0.009 0.293,0.01 0.284,0.009C0.276,0.009 0.268,0.004 0.26,0.003C0.252,0.002 0.244,-0 0.236,-0.001C0.228,-0.003 0.219,-0.002 0.211,-0.004C0.203,-0.006 0.195,-0.011 0.188,-0.013C0.18,-0.016 0.172,-0.02 0.165,-0.023C0.157,-0.026 0.148,-0.027 0.141,-0.03C0.133,-0.034 0.127,-0.039 0.12,-0.044C0.112,-0.048 0.105,-0.052 0.099,-0.057C0.092,-0.062 0.085,-0.067 0.079,-0.072C0.072,-0.077 0.067,-0.085 0.062,-0.09C0.055,-0.096 0.051,-0.103 0.046,-0.109C0.037,-0.119 0.038,-0.131 0.048,-0.139Z" style="fill-rule:nonzero;"/>
            </g>
            <g transform="matrix(200,0,0,200,1147.08,830.671)">
                <path d="M0.067,-0.734C0.079,-0.734 0.079,-0.736 0.091,-0.736C0.104,-0.736 0.104,-0.735 0.116,-0.735L0.14,-0.735C0.153,-0.735 0.153,-0.736 0.165,-0.736C0.177,-0.736 0.177,-0.735 0.189,-0.735C0.202,-0.735 0.202,-0.736 0.214,-0.736C0.226,-0.736 0.226,-0.735 0.238,-0.735C0.251,-0.735 0.251,-0.736 0.263,-0.736L0.312,-0.736C0.324,-0.736 0.324,-0.733 0.337,-0.733C0.349,-0.733 0.349,-0.734 0.361,-0.734L0.41,-0.734C0.422,-0.734 0.422,-0.735 0.435,-0.735C0.447,-0.735 0.447,-0.736 0.459,-0.736C0.472,-0.736 0.472,-0.733 0.484,-0.733C0.496,-0.733 0.496,-0.735 0.508,-0.735C0.521,-0.735 0.521,-0.736 0.533,-0.736C0.54,-0.736 0.545,-0.732 0.55,-0.727C0.554,-0.723 0.558,-0.717 0.558,-0.71C0.558,-0.699 0.559,-0.699 0.559,-0.687C0.559,-0.675 0.56,-0.675 0.56,-0.664C0.56,-0.652 0.555,-0.652 0.555,-0.641C0.555,-0.629 0.559,-0.629 0.559,-0.617C0.559,-0.606 0.555,-0.606 0.555,-0.594C0.555,-0.587 0.554,-0.582 0.549,-0.578C0.545,-0.573 0.54,-0.568 0.533,-0.568C0.521,-0.568 0.521,-0.569 0.508,-0.569C0.496,-0.569 0.496,-0.568 0.484,-0.568C0.472,-0.568 0.472,-0.571 0.459,-0.571C0.447,-0.571 0.447,-0.568 0.435,-0.568L0.41,-0.568C0.398,-0.568 0.398,-0.569 0.386,-0.569C0.374,-0.569 0.374,-0.57 0.361,-0.57C0.349,-0.57 0.349,-0.572 0.337,-0.572C0.325,-0.572 0.325,-0.57 0.312,-0.57C0.3,-0.57 0.3,-0.567 0.288,-0.567C0.276,-0.567 0.276,-0.571 0.263,-0.571C0.257,-0.571 0.249,-0.568 0.245,-0.563C0.24,-0.559 0.238,-0.552 0.238,-0.545C0.238,-0.533 0.237,-0.533 0.237,-0.521C0.237,-0.509 0.238,-0.509 0.238,-0.497C0.238,-0.485 0.24,-0.485 0.24,-0.473C0.24,-0.466 0.243,-0.461 0.247,-0.457C0.252,-0.452 0.257,-0.447 0.263,-0.447C0.275,-0.447 0.275,-0.449 0.287,-0.449C0.3,-0.449 0.3,-0.447 0.312,-0.447C0.324,-0.447 0.324,-0.45 0.336,-0.45C0.348,-0.45 0.348,-0.448 0.36,-0.448C0.372,-0.448 0.372,-0.447 0.384,-0.447C0.396,-0.447 0.396,-0.448 0.408,-0.448C0.42,-0.448 0.42,-0.449 0.432,-0.449C0.444,-0.449 0.444,-0.447 0.456,-0.447C0.468,-0.447 0.468,-0.448 0.48,-0.448C0.487,-0.448 0.493,-0.446 0.497,-0.441C0.502,-0.437 0.504,-0.431 0.504,-0.424C0.504,-0.41 0.503,-0.41 0.503,-0.397C0.503,-0.384 0.506,-0.384 0.506,-0.37L0.506,-0.316C0.506,-0.31 0.501,-0.304 0.496,-0.3C0.492,-0.295 0.487,-0.291 0.48,-0.291L0.456,-0.291C0.444,-0.291 0.444,-0.292 0.432,-0.292L0.408,-0.292C0.396,-0.292 0.396,-0.291 0.384,-0.291C0.372,-0.291 0.372,-0.29 0.36,-0.29C0.348,-0.29 0.348,-0.291 0.336,-0.291C0.324,-0.291 0.324,-0.292 0.312,-0.292C0.3,-0.292 0.3,-0.291 0.287,-0.291C0.275,-0.291 0.275,-0.292 0.263,-0.292C0.257,-0.292 0.251,-0.289 0.246,-0.284C0.242,-0.28 0.239,-0.274 0.239,-0.267C0.239,-0.254 0.241,-0.254 0.241,-0.241L0.241,-0.216C0.241,-0.203 0.238,-0.203 0.238,-0.19C0.238,-0.183 0.241,-0.176 0.245,-0.172C0.25,-0.167 0.257,-0.164 0.263,-0.164C0.275,-0.164 0.275,-0.167 0.287,-0.167C0.299,-0.167 0.299,-0.164 0.311,-0.164C0.323,-0.164 0.323,-0.163 0.335,-0.163C0.346,-0.163 0.346,-0.164 0.358,-0.164L0.382,-0.164C0.394,-0.164 0.394,-0.167 0.406,-0.167C0.418,-0.167 0.418,-0.163 0.429,-0.163C0.441,-0.163 0.441,-0.166 0.453,-0.166C0.465,-0.166 0.465,-0.165 0.477,-0.165C0.489,-0.165 0.489,-0.166 0.501,-0.166C0.512,-0.166 0.512,-0.167 0.524,-0.167L0.548,-0.167C0.555,-0.167 0.562,-0.164 0.566,-0.159C0.571,-0.155 0.572,-0.147 0.572,-0.141L0.572,-0.094C0.572,-0.083 0.571,-0.083 0.571,-0.071L0.571,-0.048C0.571,-0.036 0.572,-0.036 0.572,-0.025C0.572,-0.018 0.569,-0.012 0.565,-0.008C0.561,-0.003 0.555,0.001 0.548,0.001C0.536,0.001 0.536,-0.002 0.524,-0.002C0.512,-0.002 0.512,0.002 0.5,0.002C0.488,0.002 0.488,0.001 0.476,0.001C0.464,0.001 0.464,-0.001 0.452,-0.001C0.44,-0.001 0.44,0.002 0.428,0.002L0.404,0.002C0.392,0.002 0.392,-0 0.38,-0C0.368,-0 0.368,0.002 0.356,0.002C0.343,0.002 0.343,-0.001 0.331,-0.001L0.307,-0.001C0.295,-0.001 0.295,-0 0.283,-0L0.259,-0C0.247,-0 0.247,-0.002 0.235,-0.002C0.223,-0.002 0.223,-0.001 0.211,-0.001L0.163,-0.001C0.151,-0.001 0.151,0.001 0.139,0.001C0.127,0.001 0.127,-0 0.115,-0C0.103,-0 0.103,-0.001 0.091,-0.001C0.079,-0.001 0.079,0.001 0.067,0.001C0.06,0.001 0.054,-0.003 0.05,-0.008C0.045,-0.012 0.04,-0.018 0.04,-0.025C0.04,-0.037 0.044,-0.037 0.044,-0.048C0.044,-0.06 0.041,-0.06 0.041,-0.072C0.041,-0.084 0.044,-0.084 0.044,-0.096L0.044,-0.119C0.044,-0.131 0.042,-0.131 0.042,-0.143C0.042,-0.155 0.044,-0.155 0.044,-0.166L0.044,-0.214C0.044,-0.226 0.042,-0.226 0.042,-0.237C0.042,-0.249 0.043,-0.249 0.043,-0.261C0.043,-0.273 0.042,-0.273 0.042,-0.285C0.042,-0.296 0.044,-0.296 0.044,-0.308C0.044,-0.32 0.042,-0.32 0.042,-0.332C0.042,-0.344 0.044,-0.344 0.044,-0.356C0.044,-0.367 0.041,-0.367 0.041,-0.379C0.041,-0.391 0.04,-0.391 0.04,-0.403C0.04,-0.415 0.044,-0.415 0.044,-0.426C0.044,-0.438 0.043,-0.438 0.043,-0.45C0.043,-0.462 0.041,-0.462 0.041,-0.474C0.041,-0.486 0.042,-0.486 0.042,-0.497C0.042,-0.509 0.043,-0.509 0.043,-0.521C0.043,-0.533 0.04,-0.533 0.04,-0.545C0.04,-0.556 0.043,-0.556 0.043,-0.568L0.043,-0.639C0.043,-0.651 0.041,-0.651 0.041,-0.663C0.041,-0.675 0.044,-0.675 0.044,-0.686C0.044,-0.698 0.043,-0.698 0.043,-0.71C0.043,-0.717 0.044,-0.724 0.049,-0.728C0.053,-0.733 0.06,-0.734 0.067,-0.734Z" style="fill-rule:nonzero;"/>
            </g>
            <g transform="matrix(200,0,0,200,1269.48,830.671)">
                <path d="M0.216,-0.001C0.204,-0.001 0.204,-0.002 0.191,-0.002C0.178,-0.002 0.178,0.001 0.166,0.001C0.153,0.001 0.153,0.002 0.14,0.002C0.128,0.002 0.128,-0 0.115,-0L0.09,-0C0.077,-0 0.077,0.002 0.064,0.002C0.052,0.002 0.042,-0.01 0.042,-0.022C0.042,-0.034 0.044,-0.034 0.044,-0.046C0.044,-0.058 0.041,-0.058 0.041,-0.07C0.041,-0.082 0.043,-0.082 0.043,-0.094C0.043,-0.105 0.04,-0.105 0.04,-0.117C0.04,-0.129 0.043,-0.129 0.043,-0.141L0.043,-0.165C0.043,-0.177 0.044,-0.177 0.044,-0.189C0.044,-0.201 0.043,-0.201 0.043,-0.213C0.043,-0.224 0.041,-0.224 0.041,-0.236L0.041,-0.26C0.041,-0.272 0.04,-0.272 0.04,-0.284L0.04,-0.308C0.04,-0.32 0.043,-0.32 0.043,-0.332L0.043,-0.355C0.043,-0.367 0.041,-0.367 0.041,-0.379C0.041,-0.391 0.04,-0.391 0.04,-0.403C0.04,-0.415 0.044,-0.415 0.044,-0.427C0.044,-0.439 0.041,-0.439 0.041,-0.451C0.041,-0.462 0.042,-0.462 0.042,-0.474C0.042,-0.486 0.044,-0.486 0.044,-0.498C0.044,-0.51 0.043,-0.51 0.043,-0.522C0.043,-0.534 0.044,-0.534 0.044,-0.546C0.044,-0.558 0.04,-0.558 0.04,-0.569C0.04,-0.581 0.042,-0.581 0.042,-0.593C0.042,-0.605 0.04,-0.605 0.04,-0.617C0.04,-0.629 0.044,-0.629 0.044,-0.641L0.044,-0.665C0.044,-0.677 0.04,-0.677 0.04,-0.689C0.04,-0.7 0.042,-0.7 0.042,-0.712C0.042,-0.725 0.052,-0.733 0.064,-0.733C0.077,-0.733 0.077,-0.737 0.089,-0.737C0.102,-0.737 0.102,-0.736 0.114,-0.736L0.139,-0.736C0.152,-0.736 0.152,-0.737 0.164,-0.737C0.177,-0.737 0.177,-0.734 0.189,-0.734C0.202,-0.734 0.202,-0.733 0.214,-0.733C0.227,-0.733 0.227,-0.736 0.239,-0.736L0.264,-0.736C0.277,-0.736 0.277,-0.734 0.289,-0.734C0.302,-0.734 0.302,-0.733 0.314,-0.733C0.327,-0.733 0.327,-0.737 0.339,-0.737C0.347,-0.737 0.355,-0.733 0.363,-0.732C0.372,-0.732 0.38,-0.731 0.388,-0.731C0.396,-0.73 0.404,-0.732 0.412,-0.73C0.421,-0.729 0.428,-0.723 0.435,-0.721C0.444,-0.719 0.452,-0.718 0.459,-0.716C0.467,-0.713 0.475,-0.71 0.482,-0.707C0.49,-0.704 0.497,-0.7 0.504,-0.696C0.511,-0.692 0.518,-0.688 0.525,-0.683C0.531,-0.679 0.537,-0.674 0.544,-0.668C0.55,-0.663 0.557,-0.658 0.562,-0.653C0.568,-0.647 0.573,-0.64 0.578,-0.634C0.583,-0.627 0.587,-0.621 0.591,-0.614C0.596,-0.607 0.601,-0.6 0.605,-0.593C0.608,-0.586 0.612,-0.578 0.615,-0.571C0.618,-0.563 0.619,-0.555 0.621,-0.547C0.623,-0.539 0.626,-0.531 0.628,-0.523C0.629,-0.515 0.629,-0.507 0.629,-0.499C0.63,-0.491 0.629,-0.482 0.629,-0.474C0.629,-0.466 0.631,-0.458 0.631,-0.45C0.63,-0.441 0.625,-0.434 0.623,-0.426C0.622,-0.418 0.623,-0.409 0.621,-0.401C0.619,-0.393 0.616,-0.385 0.613,-0.378C0.61,-0.37 0.606,-0.363 0.602,-0.356C0.598,-0.349 0.595,-0.341 0.59,-0.334C0.585,-0.328 0.578,-0.323 0.572,-0.317C0.567,-0.311 0.563,-0.304 0.557,-0.298C0.551,-0.293 0.543,-0.289 0.536,-0.284C0.53,-0.28 0.523,-0.276 0.515,-0.272C0.505,-0.265 0.501,-0.25 0.507,-0.24C0.513,-0.229 0.513,-0.23 0.519,-0.219C0.525,-0.209 0.527,-0.21 0.532,-0.2C0.538,-0.19 0.536,-0.189 0.542,-0.179C0.548,-0.168 0.551,-0.17 0.557,-0.16C0.563,-0.15 0.562,-0.15 0.568,-0.139C0.574,-0.129 0.572,-0.128 0.578,-0.118C0.583,-0.108 0.585,-0.109 0.591,-0.099C0.597,-0.088 0.596,-0.088 0.602,-0.078C0.608,-0.068 0.608,-0.068 0.614,-0.058C0.619,-0.047 0.621,-0.049 0.627,-0.038C0.633,-0.028 0.633,-0.028 0.639,-0.018C0.644,-0.01 0.637,-0.001 0.628,-0.001C0.615,-0.001 0.615,0.001 0.602,0.001L0.551,0.001C0.538,0.001 0.538,-0 0.525,-0C0.512,-0 0.512,-0.002 0.5,-0.002C0.487,-0.002 0.487,0.001 0.474,0.001C0.461,0.001 0.461,-0.001 0.448,-0.001C0.44,-0.001 0.432,-0.004 0.428,-0.011C0.422,-0.021 0.421,-0.021 0.415,-0.031C0.41,-0.041 0.413,-0.043 0.407,-0.054C0.401,-0.064 0.401,-0.064 0.395,-0.074C0.389,-0.085 0.387,-0.083 0.381,-0.094C0.375,-0.104 0.376,-0.104 0.37,-0.115C0.364,-0.125 0.364,-0.125 0.358,-0.136C0.353,-0.146 0.352,-0.146 0.346,-0.156C0.34,-0.166 0.341,-0.166 0.335,-0.177C0.329,-0.187 0.331,-0.188 0.325,-0.199C0.319,-0.209 0.318,-0.209 0.312,-0.219C0.308,-0.226 0.301,-0.229 0.292,-0.229C0.277,-0.229 0.277,-0.228 0.261,-0.228C0.249,-0.228 0.24,-0.22 0.24,-0.208C0.24,-0.196 0.239,-0.196 0.239,-0.185L0.239,-0.161C0.239,-0.15 0.24,-0.15 0.24,-0.138C0.24,-0.127 0.238,-0.127 0.238,-0.115C0.238,-0.103 0.237,-0.103 0.237,-0.092C0.237,-0.08 0.24,-0.08 0.24,-0.069C0.24,-0.057 0.241,-0.057 0.241,-0.045C0.241,-0.034 0.237,-0.034 0.237,-0.022C0.237,-0.01 0.229,-0.001 0.216,-0.001ZM0.329,-0.379C0.337,-0.379 0.345,-0.379 0.352,-0.38C0.36,-0.381 0.367,-0.386 0.374,-0.388C0.381,-0.39 0.388,-0.393 0.394,-0.397C0.4,-0.401 0.407,-0.405 0.412,-0.41C0.417,-0.416 0.42,-0.423 0.424,-0.43C0.426,-0.437 0.427,-0.444 0.428,-0.452C0.43,-0.459 0.432,-0.466 0.432,-0.474C0.432,-0.482 0.433,-0.49 0.432,-0.497C0.431,-0.505 0.425,-0.511 0.422,-0.518C0.419,-0.525 0.417,-0.533 0.412,-0.538C0.408,-0.544 0.4,-0.547 0.394,-0.551C0.387,-0.555 0.382,-0.56 0.374,-0.563C0.367,-0.565 0.36,-0.567 0.352,-0.568C0.345,-0.569 0.337,-0.57 0.329,-0.57L0.306,-0.57C0.295,-0.57 0.295,-0.568 0.284,-0.568L0.261,-0.568C0.249,-0.568 0.24,-0.558 0.24,-0.546L0.24,-0.522C0.24,-0.51 0.237,-0.51 0.237,-0.498C0.237,-0.486 0.238,-0.486 0.238,-0.474C0.238,-0.462 0.239,-0.462 0.239,-0.45C0.239,-0.438 0.24,-0.438 0.24,-0.426C0.24,-0.414 0.237,-0.414 0.237,-0.403C0.237,-0.39 0.249,-0.381 0.261,-0.381C0.272,-0.381 0.272,-0.38 0.284,-0.38C0.295,-0.38 0.295,-0.378 0.306,-0.378C0.318,-0.378 0.318,-0.379 0.329,-0.379Z" style="fill-rule:nonzero;"/>
            </g>
            <g transform="matrix(200,0,0,200,1399.68,830.671)">
                <path d="M0.048,-0.139C0.057,-0.145 0.058,-0.144 0.067,-0.151C0.076,-0.158 0.075,-0.159 0.084,-0.166C0.093,-0.173 0.091,-0.175 0.1,-0.182C0.11,-0.188 0.111,-0.186 0.12,-0.193C0.129,-0.2 0.128,-0.201 0.137,-0.208C0.146,-0.215 0.147,-0.214 0.156,-0.221C0.165,-0.227 0.178,-0.227 0.186,-0.219C0.191,-0.213 0.196,-0.208 0.202,-0.202C0.207,-0.197 0.213,-0.192 0.219,-0.188C0.225,-0.183 0.231,-0.178 0.237,-0.174C0.244,-0.17 0.251,-0.166 0.258,-0.164C0.265,-0.161 0.272,-0.159 0.28,-0.157C0.287,-0.156 0.295,-0.156 0.303,-0.155C0.31,-0.154 0.318,-0.153 0.326,-0.153C0.334,-0.153 0.343,-0.155 0.35,-0.156C0.359,-0.157 0.367,-0.157 0.374,-0.16C0.383,-0.162 0.391,-0.165 0.397,-0.169C0.404,-0.174 0.41,-0.18 0.413,-0.187C0.417,-0.194 0.418,-0.202 0.418,-0.211C0.418,-0.221 0.415,-0.228 0.411,-0.235C0.406,-0.242 0.401,-0.248 0.393,-0.253C0.387,-0.257 0.38,-0.262 0.371,-0.266C0.363,-0.269 0.355,-0.272 0.346,-0.275C0.336,-0.278 0.335,-0.276 0.324,-0.279C0.313,-0.283 0.314,-0.285 0.303,-0.289C0.292,-0.293 0.292,-0.291 0.281,-0.294C0.27,-0.298 0.27,-0.299 0.26,-0.303C0.252,-0.305 0.244,-0.307 0.237,-0.309C0.229,-0.312 0.223,-0.319 0.216,-0.322C0.209,-0.325 0.2,-0.326 0.193,-0.329C0.186,-0.333 0.181,-0.34 0.174,-0.344C0.167,-0.349 0.16,-0.352 0.154,-0.357C0.147,-0.362 0.143,-0.369 0.137,-0.374C0.132,-0.38 0.124,-0.384 0.119,-0.39C0.114,-0.396 0.112,-0.405 0.108,-0.411C0.104,-0.418 0.098,-0.424 0.095,-0.431C0.092,-0.439 0.09,-0.446 0.087,-0.454C0.085,-0.461 0.084,-0.469 0.083,-0.477C0.081,-0.485 0.081,-0.493 0.08,-0.501C0.079,-0.509 0.076,-0.516 0.076,-0.525C0.076,-0.533 0.077,-0.54 0.078,-0.548C0.079,-0.556 0.079,-0.564 0.081,-0.571C0.082,-0.579 0.085,-0.586 0.087,-0.594C0.09,-0.601 0.093,-0.608 0.096,-0.615C0.099,-0.622 0.103,-0.629 0.107,-0.636C0.111,-0.642 0.115,-0.649 0.12,-0.655C0.125,-0.661 0.129,-0.668 0.134,-0.674C0.14,-0.679 0.147,-0.683 0.153,-0.688C0.159,-0.693 0.165,-0.698 0.172,-0.702C0.179,-0.706 0.186,-0.709 0.193,-0.713C0.199,-0.716 0.206,-0.721 0.213,-0.724C0.22,-0.727 0.228,-0.73 0.235,-0.732C0.243,-0.734 0.251,-0.733 0.259,-0.735C0.266,-0.737 0.274,-0.738 0.281,-0.74C0.289,-0.741 0.297,-0.743 0.304,-0.744C0.312,-0.744 0.32,-0.746 0.328,-0.746C0.336,-0.746 0.344,-0.746 0.351,-0.745C0.359,-0.745 0.367,-0.744 0.375,-0.744C0.382,-0.743 0.39,-0.742 0.398,-0.741C0.406,-0.74 0.413,-0.735 0.42,-0.733C0.428,-0.732 0.436,-0.73 0.443,-0.728C0.451,-0.726 0.459,-0.727 0.466,-0.724C0.474,-0.721 0.48,-0.715 0.486,-0.712C0.494,-0.709 0.501,-0.706 0.507,-0.702C0.514,-0.698 0.522,-0.696 0.528,-0.691C0.535,-0.687 0.541,-0.683 0.547,-0.678C0.553,-0.673 0.557,-0.666 0.563,-0.661C0.571,-0.652 0.574,-0.639 0.566,-0.631C0.558,-0.622 0.558,-0.622 0.549,-0.613C0.541,-0.604 0.539,-0.606 0.53,-0.598C0.522,-0.589 0.522,-0.589 0.513,-0.58C0.505,-0.572 0.506,-0.57 0.498,-0.561C0.489,-0.553 0.488,-0.554 0.479,-0.546C0.471,-0.537 0.461,-0.537 0.453,-0.544C0.447,-0.549 0.439,-0.553 0.432,-0.557C0.425,-0.562 0.419,-0.567 0.411,-0.57C0.404,-0.573 0.395,-0.574 0.387,-0.576C0.379,-0.578 0.372,-0.582 0.363,-0.582C0.355,-0.583 0.347,-0.581 0.339,-0.581C0.33,-0.581 0.322,-0.58 0.314,-0.579C0.305,-0.577 0.298,-0.575 0.291,-0.571C0.284,-0.566 0.276,-0.562 0.272,-0.555C0.268,-0.548 0.269,-0.54 0.269,-0.531C0.269,-0.521 0.271,-0.513 0.275,-0.506C0.28,-0.499 0.284,-0.491 0.293,-0.486C0.3,-0.482 0.31,-0.482 0.32,-0.479C0.332,-0.474 0.331,-0.473 0.344,-0.469C0.356,-0.465 0.356,-0.465 0.368,-0.46C0.38,-0.456 0.404,-0.448 0.416,-0.444C0.424,-0.441 0.432,-0.437 0.439,-0.434C0.447,-0.431 0.456,-0.431 0.463,-0.428C0.471,-0.425 0.479,-0.422 0.486,-0.418C0.494,-0.414 0.5,-0.409 0.507,-0.405C0.514,-0.4 0.522,-0.396 0.528,-0.392C0.535,-0.387 0.543,-0.383 0.549,-0.378C0.555,-0.372 0.56,-0.365 0.565,-0.359C0.571,-0.353 0.575,-0.345 0.579,-0.339C0.584,-0.332 0.591,-0.326 0.594,-0.319C0.598,-0.311 0.599,-0.303 0.601,-0.295C0.604,-0.287 0.609,-0.28 0.611,-0.272C0.612,-0.264 0.611,-0.255 0.611,-0.247C0.612,-0.239 0.612,-0.23 0.612,-0.222C0.612,-0.214 0.611,-0.206 0.61,-0.198C0.61,-0.19 0.609,-0.182 0.608,-0.174C0.606,-0.166 0.606,-0.158 0.604,-0.15C0.602,-0.142 0.6,-0.134 0.597,-0.127C0.594,-0.119 0.591,-0.111 0.587,-0.104C0.584,-0.097 0.579,-0.09 0.574,-0.083C0.57,-0.077 0.562,-0.073 0.556,-0.067C0.551,-0.061 0.546,-0.055 0.539,-0.05C0.533,-0.045 0.527,-0.039 0.521,-0.035C0.514,-0.03 0.507,-0.025 0.5,-0.022C0.493,-0.018 0.484,-0.018 0.476,-0.015C0.469,-0.012 0.462,-0.007 0.454,-0.004C0.447,-0.002 0.439,-0.002 0.431,-0C0.423,0.002 0.415,0.002 0.406,0.003C0.399,0.004 0.391,0.006 0.383,0.007C0.375,0.008 0.367,0.008 0.358,0.008C0.351,0.008 0.343,0.012 0.334,0.012C0.326,0.012 0.318,0.01 0.309,0.009C0.301,0.009 0.293,0.01 0.284,0.009C0.276,0.009 0.268,0.004 0.26,0.003C0.252,0.002 0.244,-0 0.236,-0.001C0.228,-0.003 0.219,-0.002 0.211,-0.004C0.203,-0.006 0.195,-0.011 0.188,-0.013C0.18,-0.016 0.172,-0.02 0.165,-0.023C0.157,-0.026 0.148,-0.027 0.141,-0.03C0.133,-0.034 0.127,-0.039 0.12,-0.044C0.112,-0.048 0.105,-0.052 0.099,-0.057C0.092,-0.062 0.085,-0.067 0.079,-0.072C0.072,-0.077 0.067,-0.085 0.062,-0.09C0.055,-0.096 0.051,-0.103 0.046,-0.109C0.037,-0.119 0.038,-0.131 0.048,-0.139Z" style="fill-rule:nonzero;"/>
            </g>
        </g>
    </g>
</svg>
